<svg xmlns="http://www.w3.org/2000/svg" viewBox="0 0 80.25 80.25"><defs><style>.cls-1{fill:#fff;}.cls-2{fill:#231f20;}</style></defs><g id="Layer_2" data-name="Layer 2"><g id="Layer_2-2" data-name="Layer 2"><circle class="cls-1" cx="40.12" cy="40.12" r="40.12"/><g id="uOvFtz"><path class="cls-2" d="M61,37.85a39,39,0,0,0-.71-6.65A4.94,4.94,0,0,0,56.09,27a45.56,45.56,0,0,0-6-.57c-3.67-.14-7.35-.19-11-.2-3,0-6,.06-9,.18q-2.87.12-5.71.51A5.38,5.38,0,0,0,19.84,31a34.72,34.72,0,0,0-.59,4.77c-.13,2.3-.11,4.61-.11,6.92a42.46,42.46,0,0,0,.49,6.84,5.56,5.56,0,0,0,4.83,5,64.22,64.22,0,0,0,6.63.57c2.92.13,5.83.11,9.36.17,2.79-.06,6.19-.09,9.58-.24a56.51,56.51,0,0,0,5.8-.51,5.38,5.38,0,0,0,4.49-4.23c.25-1.55.45-3.12.6-4.69A56.09,56.09,0,0,0,61,37.85Zm-25,9.36v-13l10.51,6.48Z"/></g></g></g></svg>