<svg xmlns="http://www.w3.org/2000/svg" width="122.11" height="125.35"><defs><style>.cls-1{fill:#231f20}</style></defs><g id="Layer_2" data-name="Layer 2"><g id="Layer_2-2" data-name="Layer 2"><g id="SGS_logo" data-name="SGS logo"><path class="cls-1" d="M6.07 1.73l-.39-.42h-.2l.41.42h.18zM58.3 29.63q2.37 0 3.1-9.4-.84-9.1-2.53-9.11h-1.11q-1.68 0-2.53 9.11.39 8.67 3.07 9.4zM121 61.91v-.61l.22-.19-.43-.42.21-1.2-1.44-2.64.2-.21V56l-.2.21h-.21l-.22-.21v-.19l.22-.22v-.4H119l-.22.22-.17-1.24h.49V54c.14.19.24.32.29.32l.8-.93.16.16h.22V53l.23-.27.32-.14v-.87l.12-.58h-.41v-.6h.37v-.82l-.37.37V34.15c-.06-.4-.52 13.06-.8 13.06s0 .48-.19 2.51c-.34 0-7.78-.63-7.26-.55l2.92 2 1.49.09a16 16 0 0 1 2 2.61h-.25l-.22.21h-.09l-.21.21-1.86-2a14.32 14.32 0 0 0-8.08-2.84h-2.27l-2.69.42c-.37.12-.73.24-1.08.37a.83.83 0 0 1 .85-.48v-.18h-.37l-.95.85c-.34.14-.67.28-1 .43h-.07a.77.77 0 0 0-.59.32c-.38.19-.73.39-1.07.59q.21-.59.69-.57v-.18l-.36-.4-.21.17v-.59l.2.21h.17l.42-.37h.18l-.19.17v.21h.17l.6-.36-.17-.21v-.59h.18l.57.23v-.8h-.2l-1 .76h-.38v-.2l.23-.59-.2-.21L101 48v-.2l-1.75.33v-.8l.79-.17-.2-.16v-.2l-.21.2h-.38v-.41h-.2a5.81 5.81 0 0 0-2.32 4.25 5.58 5.58 0 0 0 .43 2.17 9.51 9.51 0 0 0-2 2.51l.41.4-.63.19.63.61a3.38 3.38 0 0 1-.82 1.83v.19l.19.21-.19.22v.59l1 1.62v.21l-1.23.4.61 2.64-.41.4v.21l.19.2c-.53 0-.8.13-.8.42s.2.4.61.4l.41 1.2-.41.42V68l.19.21h-.19l-.2.2.2.82v.21l-.2.19.2.21V70h-.41v.21l.41.4-.2.21.2.62v.18l-.2.22.2.61h-.2c0 .8-.13 1.2-.41 1.2l.2.61-.2 1 .2.21c0 1.42.82 2.9 2.48 4.45q3 2.64 9.52 3.84v-.19q10.31 0 14.7-6.08l-6.2-5.48c-2.43 2.16-4.71 3.25-6.84 3.25l-1-.19q-3.95-1.17-4-5.68l18.24.4v-.21l.19-.19v-3.02l-.19-4.05.41-.41zm-9.93 1.42l-7.68-.19h-.19q.93-5.28 3.92-5.28h.41c1.74 0 2.85 1.09 3.32 3.25v.19l-.19.21.41 1.63zM121 112a.72.72 0 0 1-.59.27h-2.57c-.3 0-.52-.33-.55-.57a4.75 4.75 0 0 1 0-.54v-.48a2.94 2.94 0 0 0 0-.42V109.85a4.89 4.89 0 0 1 0-.54.66.66 0 0 1 .55-.57h.81a.37.37 0 0 1 .24.36.43.43 0 0 1-.34.42 2.51 2.51 0 0 0-.37 0 .26.26 0 0 0-.17.21V111.2c0 .17.2.19.39.18h1.65a.28.28 0 0 0 .3-.23V111v-.43-.51-.16a.48.48 0 0 0-.12-.25.75.75 0 0 0-.47-.12.4.4 0 0 1-.34-.41.29.29 0 0 1 .28-.31h.71a.83.83 0 0 1 .36.09 3.39 3.39 0 0 1 .13-.55h-.3a.25.25 0 0 1-.26-.24v-.46a.25.25 0 0 1 .26-.24h.57q.75-3.81.52-20.77l-.07-.38-22-1.74h-.29l-.15.58a73 73 0 0 1 .7 9.68 9.89 9.89 0 0 0-1-1.72c-2.3-1.54-3.44-2.52-3.44-3l-5.2-.35a8.62 8.62 0 0 0-3.79.68q-6.86 3.61-6.87 12.49v.33l.35 1.33h-.35l.69 4.94a15.79 15.79 0 0 0 .92 2.32v.11a11.63 11.63 0 0 0 1.81 2.55l-.07.34h.05a.28.28 0 0 0 .24-.11c.1.1.2.21.3.3a.22.22 0 0 0-.08.16.38.38 0 0 0 .15-.09 8.64 8.64 0 0 0 .95.77l.49.33a.68.68 0 0 1 0 .17h.1a.16.16 0 0 0 0-.08l.05-.06a10.77 10.77 0 0 0 4.82 1.5 1.24 1.24 0 0 0 .2.19.44.44 0 0 0-.11.09c-.07 0-.1.06-.1.16h.08l.08.08c0-.06 0-.08.08-.08v-.06a.07.07 0 0 0 0-.08.1.1 0 0 0 .08 0h.1c0-.07 0-.11-.08-.11l.16-.18h.53v.06a.19.19 0 0 0 .13 0h.36a.47.47 0 0 0 .35.45v-.08a.41.41 0 0 0 0-.21v-.14h-.12a.46.46 0 0 0-.13-.08 3.55 3.55 0 0 0 .46 0 .27.27 0 0 0 .13.16.25.25 0 0 0 0-.16h.28v.09h.12c0 .06.07.08.16.08h.2s0-.08-.1-.08h-.2v-.1a9.79 9.79 0 0 0 2.1-.53.2.2 0 0 1-.08 0 .1.1 0 0 0 0 .08s0 .08.15.08a.3.3 0 0 0 .25-.14.26.26 0 0 0-.14-.12 11.75 11.75 0 0 0 5.44-4.7q0 3.64.06 7.77a5.5 5.5 0 0 0 .94.23l-4.63-.25a.21.21 0 0 0 .12.1l-.18.13-.08-.13.12-.1h-.39a.13.13 0 0 0-.08 0h-.22a.13.13 0 0 1-.11 0A.24.24 0 0 1 96 120l-2.88-.15-1.45-.06c.05 0 .07.06.07.08l-.1.11h-.1v-.11l.08-.06h-.7l-3.33-.13h-.21l-4-.16 20.45 1.72 2.46-.32q5.16.48 14.76 1.09 1-1.37.83-8.7zm-33.13-2.1a.38.38 0 0 0 0-.1v-.32l.36-.32c-.21 0-.41-.24-.62-.71.1 0 .15 0 .15-.11a.21.21 0 0 0 0-.1l-.15-.06v.11a16 16 0 0 1-.71-2.77h.34l-.34-1Q86.84 96 91 96q3.8 0 3.79 6.27v4.62A9.46 9.46 0 0 1 94 110v-.06a.27.27 0 0 1-.15.08l.12.13a2.91 2.91 0 0 1-1.81 1.54s0-.06-.08-.06v.11a3 3 0 0 1-.68.07H91l-.52-.12v-.11h-.36l-.72-.24V111h-.15v.14a.52.52 0 0 1 0 .11c-.86-.32-1.33-.79-1.38-1.35zm28.32-10.16l-5.76-.56.26-3.09-1-.47c-1.34.13-1.87 1.21-1.56 3.22l.71 2q5.24 4.86 5.76 6.65 1.13 7.53-5.81 8.26l-3-.25q-4.45-1.52-5.08-3.92c.09-.16.18-.32.28-.48.18-1.33.38-2.41.58-3.27l5 .71-.16 2.1c0 .38.39.66 1 .85h.45c.64-.21 1-1.08 1.22-2.62v-.18l-.26-.18v-.18l.22-.22-.59-.88q-4.67-3.92-5.83-6.75v-2.89h-.38v-1.57c.82-2.77 2.48-4.29 5-4.54q6.86-.72 9.08 4.61l-.21.2.16 1.12-.19 1.59v.17l.27.18h-.24zm5 20.31c0 .23-.09.36-.29.32s-.47-.45-.83-.45h-1.59a1 1 0 0 0-.65.31.31.31 0 0 1-.54-.14v-1.07c0-.29 0-.31.26-.36s.39.26.6.36 1.27 0 1.88 0c.34 0 .48-.2.71-.37a.27.27 0 0 1 .44.08c-.01.39-.03.87-.03 1.32zm0-5.6c-.65.55-1.3 1.1-2 1.66l-.09.07c-.12.12 0 .19.09.21a10.3 10.3 0 0 0 1.12 0c.24 0 .28-.27.52-.35a.27.27 0 0 1 .36.26v1.18c0 .23-.35.28-.51.15a.82.82 0 0 0-.64-.35h-1.58c-.4 0-.47.2-.69.33a.28.28 0 0 1-.46-.2c0-.7 0-.93.17-1.08.74-.6 1.23-1 2-1.6.17-.18 0-.21-.09-.22a9.48 9.48 0 0 0-1 0c-.28 0-.47.42-.78.36s-.2-.29-.21-.51V114c0-.31-.06-.47.15-.61a.75.75 0 0 1 .67.24 5.22 5.22 0 0 0 1.55.07c.4 0 .85 0 .9-.24s.64-.33.64 0-.13.54-.15.99zM68 96.39l-.14.75h-.15L67.53 96c0-.29.1-.43.29-.43l-.15-.74h-.14l-.16.16h-.3c0-.87-.24-1.3-.72-1.3l-.15-.45c-1.61-1.25-2.6-1.88-3-1.88 0-.39-.49-.78-1.49-1.16h-.12v.28h-.17l-.15-.29 8.87-.08-6.53-.14h-2.44v-.08H61V90h-1l-.12-.09a.28.28 0 0 1 0 .09h-4.56l.14-.09-.17-.15-.29.15.09.09h-1.26 1.32l1.23.05a.56.56 0 0 0-.08.32l-1.78-.14h-.42l-.16.14-.13 2.9c0 2.16-.29 3.37-.89 3.64v.28h.29V97h.17l.12.16v.12l-.12.17v.12l.12.14-.29.45v.14h.29l-.12.58V99l.12.14-.29 5.94h-.29v.15h.29l-.14.14.14.45c0 .28-.09.43-.29.43l.15.43-.29 5.51-.17.73.17.15h-.17l-.29 4.79h-.14l-.29-.87h-.15l-.13.14.57 1.16v.29l-.18 2.76v.16l.15.12 6.64.31h.89a7.22 7.22 0 0 0 5-2.33l1.64-2.15v-.3l-.12-.15.58-.74v-.12l-.14-.17v-.14l.43.14h.17l-.17-1.14c0-1.18 0-2.47.08-3.87l.21-1h-.16q.26-5.77 1.06-13.84V96H68zm-7-6.24l-.3.43-.53-.43zm-1.23 0c-.12.28-.45.43-1 .43l-.11-.42zm-2.15.14l-.89.14h-.13l.16-.14v-.14l1.17.05h.5l-.46.27h-.16zm4.84 11.17v.45q0 15.22-3.22 15.23h-1.3l.28-1.88h-.13a.64.64 0 0 1 .73-.72q0-.3-.6-.3a10 10 0 0 1 .3-3.06h-.14l.14-.13-.14-.16.29-1.45-.15-.14v-.3c0-1.26.16-1.9.46-1.9l-.31-1 .15-.14v-1.31a8.62 8.62 0 0 1 .45-2.9H59v-.14l.13-.16v-1.72l.31-.45v-.12l-.17-.16.15-.16v-.43l-.15-.15.27-.59h-.12c0-1 .19-1.43.58-1.43l.14.13h.29v-.56h.31l.15.43.29-.3a1.65 1.65 0 0 1 .89 1.59h-.31l.31.88-.14.43h.56V99h-.27v.43h.27l-.13.43v.14l.13.12h-.13l.29 1.18zM50.44 107.88l-.12-.11h.12l-.1-.48.12-.47-.25-.35h.11l-.11-.35.26-1.88-.08-.47v-1.76l-.11-.13h.11l-.11-.34.13-.46V101c0-.55-.13-.82-.42-.82V100l.12-.13c0-.15-.13-.22-.41-.22V99a1.47 1.47 0 0 1 .54-.95v-.22l-.61-.59.23-1-.19-.24c.3-.44.52-.68.67-.7v.13l.23-.24h-.31v-.06l1.91.09.43-.45v-2.59l.17-1.74a5.1 5.1 0 0 0-1.91-.28h-.2v-.17h-3.78a.61.61 0 0 0-.64.34v.08l.46.41.3-.22v.79h-.1v.26h.09v.65h-.23v.39H47l-.07 3.2-.32 14.17c0 1.46-.46 2.14-1.5 2q-1.32 0-1.26-2.1v-1l.13-.84.36-18.12H40v2.57l-.31-.25h-.29l-.29.26v.13l.29.29h.6l-.36 16.52q-.12 6.33 5.25 6.33h.21q5.72 0 5.34-7.97z"/><path class="cls-1" d="M33.48 92.32v-5.53q3.06.22 8.34.54a.73.73 0 0 0 .52-.32l-.16.62h.09l.11.08a3.35 3.35 0 0 0 .56-1v-.15l-.16-.27a24.76 24.76 0 0 0 1.45-4.94l8.48.43.74 5.77c0 .33 2.73.66 8.16 1H62l4.55.25h.23l.25-.21-.16-.93.83.21v-.39l-.7-.1v-.12l.43-.39h1.16l.29.26H69l.14-.13h.2v.38h.27l.11-.31h.12V87l.14-.13H70l-.17.16v.13l.13.12h.14l.14-.12-.08-.22.06.06h.29l.15-.13.87.13-.15.13.29.52.73-.14-.25-.51h.14l.44.26H73v-.39l.15.13.43-.13 1.13.13 1-.13 1.49.13.43-.13V87l1-.13h2.83l.54 2.55h-.32l-.28.26v.89l.28.25c.18 0 .27-.12.27-.38h.14c0 .34.17.51.41.51h.13l.14-.13-.14-.12.14-.13a4.19 4.19 0 0 0-.36-1c-.09-1.13-.17-2-.25-2.7h4.13l.15-.13v.13l.72-.39h.15v.13H87l.29.26c1.43-.87 2.16-1.47 2.16-1.87h.14l.15.13h.14v-.26l-.14-.13c.15-.51 1.06-1 2.73-1.52h.28l.15.1.43-.36-.14-.13.14-.52.73.13h.29c0-.52-.43-.82-1.3-.91l-.15.13-.43-.13h-.15l.15-.38V81l-.15-.13.15-.52h-.58v-.13c.28 0 .43-.09.43-.26v-.16l-.32-.62c-.6 0-1.08-.43-1.45-1.29h.14l.15-.13-.15-.13.15-.13-.29-.26.29-.77v-.14c-1-.19-1.42-.56-1.42-1.14v-.12l.14-.13-.43-.65.14-.13v-.26h-.43v.26c-.49 0-.73.13-.73.39v.13l.14-.13a3.15 3.15 0 0 1 1.17 1.65l-.15.39.15.13H89v.13c.39 0 .58.13.58.39l-.14.13v.13l.14.13c-.13 0-.23.26-.29.78l.29.25h-.28l-.14-.13-.15.13.58.78h-.14l.14 1.27-.29.29.29.51h-5v-.64h-.29v.26l.15.13h-.15v.25h-.43l-.15-.12-.14.12h-.15v-2.85l.44.13.87-.13-.29-.39c.29 0 .43-.08.43-.25v-.26l-.14-.13h.14l.12-.13-.15-.65c-.19 0-.53-.34-1-1l-.44.23v-4.87l.15-.65-.15-.39v-.26l.15-.64-.15-.13.15-.13v-.13l-.15-.13h.15l-.15-.62V68l.15-.78v-.13l-.18-.09.15-.77v-.26l-.15-.13.15-.13v-.13l-.15-.13.15-.13v-3l-.15-.13.15-.13V60h-.29l-.44 3.08h.2l-.3 1v.13l.15.13-1.42 8.08h.14l-1.59 8.1v.13l.14.13-.14.64h-.29l-.58-.12-.58.12h-1.91l-1-6.29v-.12l.15-.13h-.17c-.08-.46-.16-.9-.24-1.33a1 1 0 0 0 .07-.36l-.11.13q-1.86-10.17-1.86-13v-.12h-.29v11.57l-.17-.18h-.3l-.27.25V72l.27.26h.14l.33-.31v.82l-.29.25h-.3v.39c.3 0 .44.13.44.39-.58.36-.87.71-.87 1h.14l-.14.64v.13h.14l.15-.13a.66.66 0 0 1 .28.17l.11.1a2.37 2.37 0 0 1 .21.33l-.24.36-.08-.28-.27.25v.13l.14.13h-.39v.25h.25l.15-.09.44-.26.15.39-.15.13v.65l.15.13H73l.15.38c0 .26-.1.39-.29.39h-.73l-.14.39.14.39c.19 0 .29-.17.29-.52h.29c.19 0 .34.34.44 1l-.15.13v.26l.15.13H73l.15.39-.15.64h-5v-.77h.29l-.29-.45v-.13l.15-.13-.15-.13v-3.86h.29v-.1H68v-2.07h.15v.86h.17l.15-1.19.14.13h.29v-.13c-.39 0-.58-.44-.58-1.32h-.17v1.36H68V49.75l.15-.65L68 49h.15l.14-.13-.29-.41v-.39l.44-.13.43.13c0 .26.1.39.29.39v-.26l-.16-.13h.14l.15-.13h1.85l.58.13.58-.13h3.3l-.14.65h.29v.51l-.15.65.3.39-.15.1v.13l.15.13-.44.39.14.52h.15l.15-.13.14.39h.14l-.14.38v.26l.14.13h.15l-.15.39V53l.15.13H76v.39c.23 0 .38.16.43.49l-.14.13v.39l.29.26-.15.13.59 2.32h-.15l.29 1.66v.1l-.14.13c.24 0 .44 1.11.57 3.34l.15.39h-.15a43.48 43.48 0 0 1 1 5.67h.29l2.76-18.38h-.15l.29-2.2h7.52v.13l-.14.13h.29v-.26h.07v.33l-.06.06h.06l.06.06-.11.3v.12h.14a.23.23 0 0 0 .23-.13l.07.08c.13 0 .28-.14.44-.42.45-.13.68-.36.68-.69a1.83 1.83 0 0 1-.69-1l.11-.1c0-.6.15-.91.44-.91v-.25l-.15-.13.29-.39-.43-.26v-.13l.14-.13V44l-5-.39-.15.13v-.13h-.66l.18-3.07q-4.45-.25-4.32-2.58l.67-11.08 1.64.1a.21.21 0 0 0 .15.07.14.14 0 0 0 .12-.09l2.76.16a4.33 4.33 0 0 1 1.82.46 2.73 2.73 0 0 1 1.1 1.2 6.07 6.07 0 0 1 .5 2.13 25.88 25.88 0 0 1 0 3.28l-.2 3.28a11.19 11.19 0 0 0 .22 3A6.92 6.92 0 0 0 90.6 43a5.8 5.8 0 0 0 2.09 1.79 8.05 8.05 0 0 0 3.25.79 6.75 6.75 0 0 0 2.86-.36 4.93 4.93 0 0 0 2-1.33 6.39 6.39 0 0 0 1.24-2.13 10.18 10.18 0 0 0 .53-2.72l.2-3.31h.23l-.15-.6-.06.05v-1.1l.16-2.75h-.36v-.13h-.38v.12l-1.76-.1-.48 8a3 3 0 0 1-.46 1.61 1.14 1.14 0 0 1-1 .48 1.07 1.07 0 0 1-.89-.59 2.89 2.89 0 0 1-.19-1.72l.24-4a19.27 19.27 0 0 0-.08-3.63 8.93 8.93 0 0 0-.73-2.66 6.18 6.18 0 0 0-1.3-1.82 7 7 0 0 0-1.84-1.2 7.41 7.41 0 0 0 2.14-.83 7.18 7.18 0 0 0 1.9-1.61 8.89 8.89 0 0 0 1.42-2.47 11.26 11.26 0 0 0 .69-3.42 2.72 2.72 0 0 0 0-.28 30.24 30.24 0 0 1 2.6 5 42.09 42.09 0 0 1 3.65 6.18l.12.89-.12 1.17c.29 0 .6.39.92 1.27-.41 0-.62.36-.64.93l.61.92-.11.87.36 1.12.49-.06.19-.24-.52 3.29.3.61-.28 1.66.3.18-.24.29.55.4-.19.24.3.61-2.58.23v.21c.89.21 1.32.42 1.31.65l-1.17.33V44a.92.92 0 0 1 .7.41 2.87 2.87 0 0 1-1.42.67l.05.44-.15-.19-.42.36h.57v.13h-.59l-.12-.95-.8.15h-.19l.17.6v.25h-.89v-.42l-1.15-.23v.59h.2l.17-.05h.16l.3-.09.21.23h-.08l-.19-.13h-.36l.12.12-3.06.1h3.18l.46.51h.59l.18-.17v.18l.59-.15h.2v.39h.2l.19-.2-.25-.57h.68v.39l.36.4h.19a6.47 6.47 0 0 0 1.59.72l.88-.11.41-.52a4.18 4.18 0 0 0 1-.24l3.08.21.7-.08.46-.58 3.06.15.23-.33-.38-.82.15-1h.22c.18 1.38.5 2.05 1 2l.59-.59 1.19-.14-.23-1.78-2.24-1.15q-1.45.18-2.2-5.62v-1.42l-1.26-9.91.11-1.17c-.32 0-.46.27-.4.69h-.22v-.21c.19-.63.39-.95.59-1l.06.47c.32 0 .57-.69.74-1.94-.06-.48-.26-.7-.58-.66q.65-.6 2.91-9c.6-4.61 1.46-7.69 2.57-9.26l.82.07c.08.73.15 1 .15 8.32 0 .31.5 8.9.58 8.54l.4-19-.19-.15h-.88l-.16-.12-.56.11-5.31-.11 1.19.64h-.73l-.91.63h-.44l-.81-.42-2.11.26-.2.24L111.53 5c1.72-.06 2.65.5 2.8 1.68v1.43l.37 1.11h-.22l-1.67 5.45.37 1.11c-.27.93-.54 1.4-.81 1.43v.3l.25.18a3.43 3.43 0 0 1-1.29 2.87h-.22q-.12-1-3.17-6.28h-.22l-.27.33q-.51-4-2.55-5.24l.19-.23-.39-1.24q-.26-2 1.59-2.22L106 3.14l-.49-.37a4.69 4.69 0 0 0-2.24 1l-.82-.42-.66.08-.87.84-1-.62-1 .12-.64.6h-.22c-.06-.48-.27-.69-.62-.65L97 3.8l-.39.48h-.22l-.25-.18-3.3.4v.07a.59.59 0 0 0-.11-.27.68.68 0 0 1-.1.31.37.37 0 0 0 0 .12.13.13 0 0 0 0 .09l-.23.28v.29h-.09l-.07.2h.15v-.14l.09.71.39.94a9.23 9.23 0 0 1 1.46 1 5.29 5.29 0 0 0-.57-.15c-.39-.1-.79-.17-1.2-.24v-.3a.47.47 0 0 1-.2.2H92.07a.19.19 0 0 0-.22-.15H91.38v.13l-1.08-.21v-.12h-.1v.14H90l-5.18-.3v-.23h-.13l-.06.13-2.29-.13-.24-.11v.14l-3.05-.17h-.06l-2.49-.14h.07c.09 0 .13-.07.13-.12s0 0-.06-.08V6.3a.69.69 0 0 0-.37-.65v.12a.68.68 0 0 0 .06.31v.19h.12a.48.48 0 0 0 .15.11.94.94 0 0 1-.2.12c0 .06 0 .08.06.08h-.31v-.15a.4.4 0 0 0-.16-.31.52.52 0 0 0 0 .24.13.13 0 0 0 0 .11l.07.09h-.41v-.25h-.13a.15.15 0 0 0-.16-.12.64.64 0 0 0-.2 0 .1.1 0 0 0 .1.11h.21v.15h.06l-4-.23a.17.17 0 0 0-.1 0h-.6v-.08l-.24-.34.06-.15a.42.42 0 0 0 .13-.08.71.71 0 0 0-.13-.16l-.18.22-.08-.11a1.09 1.09 0 0 0 0-.26 1 1 0 0 1-.08.11V3.94l.06-.08a.22.22 0 0 0 0 .08 1.84 1.84 0 0 0 .11.55.13.13 0 0 0 0-.12.74.74 0 0 0-.04-.37h.08a.12.12 0 0 0 0-.08.35.35 0 0 0 0-.12v-.08l.39-.55 1.9.08 4.44.11v-.09a.21.21 0 0 1 .19.09l3.19.08v-.1h.21l4 .1-14.1-1.1q-1.12-.53-10-.79l-1-.08-.26.05q-3.72-.09-8.66-.15l-3.37.27-.57-.53h-2.27l-.61.61V2l.84 1.92v.27l-.16.18h-1.26l.1.13a.5.5 0 0 1-.15.09l-.06.11h-.12v-.13h.12v-.08l.13-.08h-.92v.08l-.08-.05h-.22.05l-.13.07-.14-.04h-.48c-.06 0-.09 0-.09-.13s0-.26-.11-.26a4.18 4.18 0 0 1-.82.07v.06h-.13c-.23 0-.64-.09-1.22-.21l-.08.11L39 4a2 2 0 0 0-.37 0h-.23c0 .14-.08.2-.13.2l.07.14h-.1a.1.1 0 0 1 0 .08c-.15 0-.23-.06-.23-.08h.18l-.08-.11.1-.08a.09.09 0 0 0 0-.05c-.14.21-.25.32-.32.32a.1.1 0 0 1-.1.08h-.1.05a.24.24 0 0 0-.12 0h-.07a.4.4 0 0 1-.15 0 .05.05 0 0 1 0-.05s.06-.06.13-.06a.12.12 0 0 1 .12.06v.06a1.39 1.39 0 0 0 .37-.14h-.07l-.1-.13.12-.1L38 4v-.1h-.13c0 .07-.09.1-.13.1s-.09 0-.12-.13v.08h-.1v.1h-.2l.05-.15a3 3 0 0 0-.77.31.32.32 0 0 1-.15 0 .15.15 0 0 1-.13-.08.46.46 0 0 1 .1-.07l-.1-.06a.32.32 0 0 1-.2.06h.08v-.11a.17.17 0 0 0-.1 0 .09.09 0 0 1-.08 0l-.1.08L35.7 4s-.07 0-.15.1v-.13a.62.62 0 0 1-.3 0 4.53 4.53 0 0 1-1.27-.26v.13a.19.19 0 0 1-.13-.16h-.24a3.2 3.2 0 0 0-.68 0H31.58l-.84-.11h.07v.21l-.18-.08v-.16h-.23a1.28 1.28 0 0 1-.07.16c.1 0 .15.05.15.11a.34.34 0 0 0-.17.08h-.18v.1l.05.05a.41.41 0 0 0-.17 0 .22.22 0 0 0 0-.1V4h.13A.17.17 0 0 1 30 4l.1-.26h.2a1.91 1.91 0 0 0-.1-.23h-.55v.16l-.2-.11.08-.08-.33-.05-.05.13L29 3.5v-.08h-1a5.91 5.91 0 0 0-.92.1h-.07a3.66 3.66 0 0 1-.58.06h-.15a.78.78 0 0 1-.37-.14 1.32 1.32 0 0 0-.38-.15 3.4 3.4 0 0 0-.67-.06h-.6c-.72.1-1.13.16-1.25.16a1.48 1.48 0 0 0-.42-.13l-.5-.26a.23.23 0 0 0 .13.19.09.09 0 0 1 .07.1.31.31 0 0 1 0 .08c-.09 0-.16 0-.23-.16A.21.21 0 0 1 22 3.1a.08.08 0 0 1 0-.1h-.18q0 .24-.39.24l-.11 2.86.05-.08c.05-.08.08 0 .08-.06.09.25.16.37.19.37h-.15a.51.51 0 0 1-.22-.13v1.26h.05l.05.06a.08.08 0 0 1 .05.07h-.1a.14.14 0 0 0 0 .11c0 .48 0 .93-.06 1.36V8.9q-1.32-4.26-3.89-5.73V3l.19-.19v-.44H17V3a10.74 10.74 0 0 0-5.89-1.3H9.43q-9 2-8.81 9.57v1.21H0v.19q0 .4.66.39v.6Q.78 19 6.13 24.38q7.71 6.39 7.81 11.42c0 1.7-.44 2.78-1.43 3.23h-1q-1.75 0-2.66-6.73a42.26 42.26 0 0 0-7.33 1C2.06 38.93 3 41.85 4.39 42a8 8 0 0 0 3.22 2.25l-.35.3v.19h.62v-.39a12.69 12.69 0 0 0 4.57.65h1A8.47 8.47 0 0 0 19 42.92V43a2.82 2.82 0 0 0 0 .43.81.81 0 0 0 .36.62h.18c.3 0 .48-.25.53-.77v-.19a3.29 3.29 0 0 0-.05-.54 1.29 1.29 0 0 0-.15-.51h-.06A12 12 0 0 0 21 40.66c0-.54.19-.81.6-.82l-.2-.59.55-3.41-.22-.2h.22a14.9 14.9 0 0 0-.16-1.89 2.92 2.92 0 0 1 .18.39l.07.24.08.24a2.65 2.65 0 0 0 .43.88.62.62 0 0 0 .34-.29 1.35 1.35 0 0 0 0-.4v-.49a1.31 1.31 0 0 1 .13-.59h-1.25a15.62 15.62 0 0 0-.39-1.9h.11a.71.71 0 0 0 .2 0 1.54 1.54 0 0 0 .56-.1l.05-.89a1.14 1.14 0 0 0-.58-.19h-.41l-.3-.05c-.17-.48-.35-1-.56-1.43a3.85 3.85 0 0 0 .63 0V28a1 1 0 0 0-.18-.67l-.53.11-.54-.16c0 .18 0 .35.05.51V28a.53.53 0 0 1 0 .16 22.54 22.54 0 0 0-3.57-5q-7.71-7-7.8-11v-.8a2.91 2.91 0 0 1 2-3h1.06q2.07 0 3.09 7.73l6.1-.49H21l.05.05a.52.52 0 0 1-.15.14v-.06c-.11 2.19-.23 4.34-.34 6.46a3.94 3.94 0 0 1 .72-.05 6.43 6.43 0 0 1 .85.05q1.2.14 1.65.15h.05a.23.23 0 0 0 .22-.13l.1-.26a1.35 1.35 0 0 1 .57.24.9.9 0 0 0 .55.23V22a7.8 7.8 0 0 1 .4-2.73l-.12.13c0 .06-.06.08-.13.08a19 19 0 0 0 .2-3.23v-2.12s.09-.09.25-.16a.25.25 0 0 0 .15-.23.36.36 0 0 0 0-.11c.41.05 1.22.09 2.42.11h.15a4.91 4.91 0 0 1 1.42.16q0 .36-.15 1.44a9.75 9.75 0 0 0-.07 1.08v.21a.19.19 0 0 1 .07.13h-.07a2.61 2.61 0 0 0 .25 1.05 31.13 31.13 0 0 0-.55 4.54.76.76 0 0 0 0 .21c0 .25.11.37.33.37a6.14 6.14 0 0 1-.38.76 1.64 1.64 0 0 1 0 .37c0 .44 0 1.13-.15 2.1a10.94 10.94 0 0 0-.08 1.18 3.41 3.41 0 0 0 .18 1.25v-.35a1 1 0 0 1 .4-.85v.1a.68.68 0 0 0 .1.41.21.21 0 0 0 .18.07h.33a1.05 1.05 0 0 1 .26-.05 1.07 1.07 0 0 1 .25 0 1 1 0 0 1 .34.06 2.05 2.05 0 0 0 0 .42v.49c0 .28-.12.42-.29.42h-.23a.16.16 0 0 1-.17-.16V28.58a.68.68 0 0 0 0-.18.21.21 0 0 0-.16-.06.77.77 0 0 0-.23.06H30a.19.19 0 0 0-.18.13v.4a.55.55 0 0 1-.07.35s-.05.05-.1.05a.51.51 0 0 1-.26-.08 1.56 1.56 0 0 1-.1-.4v-.07a13.28 13.28 0 0 0-.29 2.29 1.42 1.42 0 0 1 .28.27 1 1 0 0 1-.34.7c0 .44-.09 1.1-.17 2a1.29 1.29 0 0 1 .18.67 2.08 2.08 0 0 1-.05.41 1.35 1.35 0 0 1-.21.13 23.06 23.06 0 0 0-.16 2.4 10 10 0 0 0 .05 1v.08a.48.48 0 0 0 .1.21.63.63 0 0 0 .12.15 1.11 1.11 0 0 1-.12.4.64.64 0 0 0-.17.31 13.36 13.36 0 0 0-.13 2.06h.1c.08 0 .14.07.18.19a1 1 0 0 0-.18.48v.67a3.72 3.72 0 0 1-.08.64 5.87 5.87 0 0 1-.17 1.53l-2-.11c0 1 0 2.18-.1 3.49l-.59.42h-.19a17.1 17.1 0 0 0-8.88-2.44 19.06 19.06 0 0 0-9.09 1.94v-.37h-.23l-1.42 1.38-1.22-.34.21.53c0 .58-.54.93-1.62 1l.33.43h-.07c-.21 0-.41.24-.62.71v.18h.43l.13.11a8 8 0 0 0-1.23 4v.51q0 6 5.07 8.55v.19c-2.83 2-4.24 4-4.24 5.92q0 1.86 2.61 3.67-4.62 2.2-4.63 5.41a4.47 4.47 0 0 0 2.75 4.11v1.44h.51v-.75-.44c2.12.94 5.27 1.4 9.44 1.4l.19-.18.21.18h.21l.19-.18v.18l.8-.18h.21l.22.18.19-.18a27.34 27.34 0 0 0 12.91-2.79 11.78 11.78 0 0 0 1.91-1.29c-.47 1.39-.91 2.72-1.33 4h-2.37v1.07a4.15 4.15 0 0 1-.79 2.46l-.2-.18-.32.26v.13l.18.13.13-.08a9.36 9.36 0 0 1-4.38 2.58l.09-3.52-2.61-1-.26.25v-.25l-15.07-.7c-1.03.8-1.24 1.13-1.24 1.8l-.15.86C1.62 100.07 2.08 109.12.88 117q0 2.42 3.84 2.41c.51 0 .76-.88.76-2.65v-1h4.1l2.54.25.26-.25.26.25c.16 0 .3-.18.42-.51v.06l.05-.06v.06h.07v-.06l.16.06v-.06l.23.06h.13l.07-.06.09.12v-.12l.28.12.07-.06v-.13l-.2-.06v.06h-.11v-.06l-.05.06h-.43l-.23-.06-.05.06v-.12.06h-.11v-.06a24.65 24.65 0 0 0 .53-5.32v-.25l-.26-.24-1.79.73Q5.83 110.26 5 104v-2.64l-.24-.24.24-1q0-1.44 1.29-1.44v-.49h-.55l-.26.25a7.43 7.43 0 0 1 1.79-4.08v-.24l-.27-.2h.26l.26.25q1.35-1.23 4.85-1.69c3.79.52 5.82 2.14 6.09 4.88h-.18c0 .43-.3.65-.91.65v.44a4.33 4.33 0 0 0 1.13-.12V99l-.52.49h-4.07V98a2 2 0 0 0-1.27-1.93h-.78a3.41 3.41 0 0 0-1.49 1.79l-.27-.27h-.24V98l.24.21h.15a1.21 1.21 0 0 1-.05.18l-.79-.18h-.22l-.19.26-.33-.08.1-.11v-.23h-.29l-.25.24-.18-.05v.23l-.05.06v.26h.24l.06-.07c.45.1.68.31.68.63l1.14-.23a5.17 5.17 0 0 0 0 .57v2.88c0 2.18.69 3.46 2 3.84a4.31 4.31 0 0 0 2.8-1.67h.26l2.55.71c0 2.3-.24 5.64-.71 10l-.2.07v.12H17c0 .41-.09.83-.14 1.27l-.12.06v.12h.08V117c-.05.4-.1.8-.15 1.22v1.93h-3.28v.48l6.7 1.44.13-.12a2.89 2.89 0 0 1-.73-.81q1.19 0 1.71-23.16h1.86l.45.43V115c0 1.7 1.18 2.68 3.52 3l.1.26-.05.06v.13l.05.4h.08v-.34l-.08-.5c.42 0 .87.07 1.36.07h3.41q6.35 0 6.34-2.39v-6.49h-2.5v3l-.9.87h-.22l-.91-.87V98.37l.46-.43h4.07v-5.19h-4.31zM103.1 46.2h-.37l-.17-.12h.83a.32.32 0 0 1-.29.12zM76.49 3h.1v.16l-.15.16v-.08c-.06 0-.08-.09-.08-.12zM19.73 43.24c0-.22-.05-.39-.07-.51.05.32.08.53.1.65zm1.49-33.92a.4.4 0 0 1 .1.13l-.09.08v-.2zM3.33 51.88l.17-.36v.08a.3.3 0 0 1-.17.28zm36.51 4.53zm2.63-8a.09.09 0 0 1 .06 0zM52 72.57l-1.74-.14h.1l.29-.25v-.39l-.29-.29h-.16v.93l-3.56-.29.75-3h.23l.26.23h.23v-.44h-.49v-.63h.49v-.23l-.23-.2v-.23c.27-2.13.67-3.2 1.2-3.2v-.23h-.48l1.21-3.63h-.24a10.62 10.62 0 0 0 1-3.86h.26l.17 3.16a3.14 3.14 0 0 0-.2 1.09 3.24 3.24 0 0 0 .4 1.42l.24 3.12h-.04l.09.43.5 6.43zm14.24 10.6h-.16v-.13l.15-.13zM65.87 82h.07l-.06.09zm-.05-.26v-.26l.16.26zm1 5.61v.07zm5.5-49.18v-.29l.28-.22a2.12 2.12 0 0 1-.21.7zM88.19 12.7a.31.31 0 0 0-.06.18.14.14 0 0 0 .13.08v.15h.15v-.2a.81.81 0 0 0-.21-.23l.5.11c0 .05 0 .08.08.08l.05.07s0-.06.09-.19l.25.09a.78.78 0 0 0 .07.25.84.84 0 0 0 .08-.2l.13.06a1.64 1.64 0 0 0 0 .18l.08.07s.08 0 .08.08a.16.16 0 0 0 0-.12v-.13a3.79 3.79 0 0 1 .34.2c0 .11-.11.16-.18.16a.13.13 0 0 1-.07 0c0 .13.06.2.13.2a.57.57 0 0 0 0 .19s.06-.06.13-.19v-.05a.52.52 0 0 0 .17-.21 2.76 2.76 0 0 1 .54.54 4.56 4.56 0 0 1 .8 2.6.36.36 0 0 0-.1-.11l-.1.16.11.07c.06-.05.09-.08.09-.11v.95c-.12 2.08-.55 3.51-1.29 4.3a4 4 0 0 1-3.34 1l-5.15-.3.13-2.18v-.17a.1.1 0 0 0 .07.06s.06 0 .08-.08-.1-.11-.13-.11l.26-4.35.11.09v-.31c0-.13 0 0 0 0h-.06v-.39h.06v-.89.07a.27.27 0 0 1 0-.11.3.3 0 0 1 0-.12c0-.1 0-.16.05-.16h-.08l.08-1.37a.76.76 0 0 1 .35.11.45.45 0 0 0 0-.16.47.47 0 0 0-.06-.15l2 .12a.49.49 0 0 0-.09.15s.08 0 .08.07v.08s.09-.1.13-.3l2.71.16a5.59 5.59 0 0 1 .81.21zM71.84 2.86a.08.08 0 0 0 .08 0 .14.14 0 0 0 .1 0 .38.38 0 0 1 .13 0 .11.11 0 0 1 .1.08.24.24 0 0 1-.22.16c-.11 0-.16 0-.16-.11a.19.19 0 0 1-.03-.13zm-.36-.23l.08.2-.12.17a.35.35 0 0 0-.13-.15zM58 5.34a10.5 10.5 0 0 1 6.44 1.92q5 3.9 5.93 7.6a1.54 1.54 0 0 1-.17.19l.26.31a7.68 7.68 0 0 1 .12 1.26h.57L71 10.41a3.7 3.7 0 0 1 2.67 1.1 1.11 1.11 0 0 0-.17.16l.15.15a.12.12 0 0 1 .11 0 .24.24 0 0 0 0-.08.09.09 0 0 0 0-.07v-.08a2.06 2.06 0 0 1 .31 1.28l-.2 3.28v.07l-.12 2.06-.09-.17a1.31 1.31 0 0 1-.1.19l.08.12a.19.19 0 0 1 0 .12l.07-.09v.53l-.1-.16a.69.69 0 0 0 0 .24c0 .07.06.13.16.15l-1.1 18.15-.3-.29-.81-13.8h-.57l-.27 2.23q-3.78 10.76-12 10.76h-.84a6.64 6.64 0 0 1-3.07-.56 18 18 0 0 1-4.28-2.59h.12a.37.37 0 0 0 .31-.14.43.43 0 0 0 .1-.29.72.72 0 0 0-.1-.35.62.62 0 0 0-.51-.43c-.22 0-.43.18-.62.53l-.23-.23v-.35h-.35c-.19-.2-.37-.4-.54-.61h.61l9.68-.09-4.08-.15-6.52.06c-.28-.35-.54-.7-.79-1.08L48 30a.93.93 0 0 0 .64-.22v-.51a.44.44 0 0 0-.11-.32.75.75 0 0 0-.28-.21H48.1l-.1-.19a.53.53 0 0 1-.15-.37.62.62 0 0 0-.48.24.61.61 0 0 0-.08.35v.37a1.42 1.42 0 0 1 0 .27v.1a13.75 13.75 0 0 1-1-2.15l.08-.1-.21-.26a18.24 18.24 0 0 1-1-6.24l.57-4.15Q49.15 5.33 58 5.34zm-5.11 38.94l.39.14h.08v.77h-.13a.27.27 0 0 1-.23-.11.6.6 0 0 1-.08-.35v-.42a.11.11 0 0 0-.03-.03zm-8.35-10.61l-.13.11v-.08c0-.09-.06-.14-.18-.14a.61.61 0 0 0 .11-.35.43.43 0 0 1 0-.05 1.69 1.69 0 0 0 .33 0v.28a.23.23 0 0 0-.07.15.22.22 0 0 0 .07.09v.07a1.39 1.39 0 0 0-.13-.08zm-.66-1.93a.37.37 0 0 1 .09-.21l-.07.27a.14.14 0 0 1-.02-.06zm1.35-20zm.43-1.23a1.85 1.85 0 0 1-.05-.28h-.1V10h.15a.41.41 0 0 0 0-.21v-.25.24a4.21 4.21 0 0 1 0 .68zM43.8 32.89l.05.07h-.05a.24.24 0 0 0 0-.08zm.18.24H44.13l-.07.11s0-.05-.08-.05zm6.21-.24l-.26-.23a1.36 1.36 0 0 0 .12-.12c.12 0 .18.1.18.25a1 1 0 0 1-.04.1zM34.47 28.1a1.15 1.15 0 0 1 .41-.06h.48a1.09 1.09 0 0 0-.07.4 1 1 0 0 0 0 .25 1.59 1.59 0 0 0 0 .29v.24a1.79 1.79 0 0 1 0 .3v.1a.37.37 0 0 1-.33.19.59.59 0 0 0-.23-.32.48.48 0 0 0-.15-.11l-.08-.05-.1-.06a.92.92 0 0 1-.31-.21.57.57 0 0 1-.15-.4.52.52 0 0 1 .53-.56zm-.53 3.24a.73.73 0 0 1 .5-.22.81.81 0 0 1 .31.06 1.4 1.4 0 0 1 .66.45l.18-.21c0-.4.06-.74.06-1a2.32 2.32 0 0 0-.1-.78c.05-.07.13-.21.25-.42a1 1 0 0 0 0-.14 2.61 2.61 0 0 1 0-.4v-.28a.62.62 0 0 1-.18.05 6.54 6.54 0 0 0 .28-1.1.17.17 0 0 1-.1 0 .16.16 0 0 1-.05-.1c0-.09.06-.17.2-.24s0-.35 0-.63v-.63a.08.08 0 0 1-.07 0h-.08c-.12 0-.19-.1-.23-.29a.27.27 0 0 1 .28-.24.14.14 0 0 1 .12.06c0-.26.06-.52.08-.76a.37.37 0 0 0 .05-.16c0-.05-.05-.09-.13-.11s-.22 0-.22-.08a.61.61 0 0 1 0-.16c0-.09 0-.13.08-.13h.1a.33.33 0 0 0 .15.06s.05 0 .05-.06v-.78a.48.48 0 0 0-.15-.34c-.13-.11-.2-.18-.2-.21a4.56 4.56 0 0 1 .32-.5.41.41 0 0 0 .1-.26.53.53 0 0 0-.22-.4 2.42 2.42 0 0 0 .3-1.31 5.78 5.78 0 0 0 0-.58h-.05v-.13a.16.16 0 0 0 0-.08 6.67 6.67 0 0 1 0-.86 2.12 2.12 0 0 1 .25-1.21 2.29 2.29 0 0 1-.13-.76h-.07.07v-.21a4.42 4.42 0 0 1 .13-.91v-1.29h1.07v-.1h.15-.08l1.6.21v-.05h.15v.13a9.88 9.88 0 0 0 1.15.13 6 6 0 0 0-.18 1.29.78.78 0 0 0 .21.65v.21q0 1-.37 6.66l3.09.17.38 1-.26 1.71a.16.16 0 0 0-.11.05.2.2 0 0 0 0 .08.22.22 0 0 0 .1.16l-.24 1.56.3.3-.11.41h-.23a.22.22 0 0 0 0-.11l-.1-.01c-.06 0-.1 0-.16.11h-.07a.6.6 0 0 1-.05.24.56.56 0 0 0 0 .08v.11a.69.69 0 0 0-.05.13h-.08v-.08c0-.11-.06-.17-.19-.19a.24.24 0 0 0 .14.21.37.37 0 0 0 .09.23.17.17 0 0 0 0 .07v.08a1.05 1.05 0 0 0 .58.19h.09v.19l.73 1.22h-1.3 1.33l-.4.05-.28.06H43.23a1 1 0 0 1 .1.24 1.89 1.89 0 0 1 .1.35.27.27 0 0 0 0 .08.09.09 0 0 0 0 .08s-.07 0-.07.06v.13a.23.23 0 0 0-.11 0 .17.17 0 0 0-.13.08.7.7 0 0 0 0 .14.25.25 0 0 0 0 .13v-.08a.5.5 0 0 0 0 .19v.05c0 .05 0 0 .08.11S43 33 43 33a.09.09 0 0 0 .07 0v-.06a.77.77 0 0 0 .13.22s.06 0 .12-.11a.27.27 0 0 0-.11-.17 1.13 1.13 0 0 0 .35.08.64.64 0 0 1 0 .07h.07a.19.19 0 0 0 .16.16.28.28 0 0 1-.13 0c.07.13.14.19.23.19a.9.9 0 0 1-.1.22.09.09 0 0 0 0 .05.08.08 0 0 0 0 .05c0 .07.06.12.18.16s0 .07.1.11a.23.23 0 0 0-.26.21v.06c0 .1.08.16.23.16h.13a.26.26 0 0 0 .28-.22l-.19.71c-.07 0-.11 0-.11-.13a.7.7 0 0 0-.15.49v.26-.1c0-.08-.09-.15-.28-.18v-.06a.43.43 0 0 0 .31.46v-.11a.72.72 0 0 0 .16.27 2.92 2.92 0 0 0 .24.37l-.36.35v.3l.27.24v1.12l-.6 3.83v.27l.3.27-.3.29v.27l1.42-1.1-.28 1v.29l.13.13a.91.91 0 0 0-.14.55v.13a3.45 3.45 0 0 0-.38-.4 2.62 2.62 0 0 0-.49-.38.92.92 0 0 0-.25-.05c-.24 0-.36.23-.36.7v.08c.21-.2.36-.3.46-.3a.1.1 0 0 1 .08 0c.08 0 .13.1.13.24a.45.45 0 0 1 0 .16 2.49 2.49 0 0 1-.18.67 1.35 1.35 0 0 1-.3.54h.15a.62.62 0 0 0 .56-.35c0-.05 0-.12.08-.21v-.2a1.21 1.21 0 0 1 .26-.31h.08l-.14.29V45h.24a1.8 1.8 0 0 0 0 .27.49.49 0 0 1 .31-.16.68.68 0 0 1 .25 0h.31a.28.28 0 0 0 .2-.1v-.11H46l.57-.56a3.44 3.44 0 0 0 .55.46.38.38 0 0 1-.36.23.67.67 0 0 0 .33.14.35.35 0 0 0 .3-.2 3.82 3.82 0 0 0 .46.21l-.05.12.24-.05a4.18 4.18 0 0 0 1 .18l.33-.21a.18.18 0 0 1 .09.16 1.06 1.06 0 0 0 0-.21l.4-.25v-.56l1.74-.21V44.73a.82.82 0 0 1 0 .32.56.56 0 0 1-.39-.56v-.11a.42.42 0 0 0-.25.32.44.44 0 0 0 0 .14.76.76 0 0 0 .08.32.72.72 0 0 0 .28.35.8.8 0 0 0 .26 0 .74.74 0 0 0 .25 0 1.3 1.3 0 0 0 .26-.86v-.55h.32l.25.08a1.39 1.39 0 0 0-.06.35v.16a.89.89 0 0 1 0 .22 2.11 2.11 0 0 1-.1.45.79.79 0 0 0 .48.16h.33a.1.1 0 0 1 .08 0 .69.69 0 0 1 .38.14 1.51 1.51 0 0 1-.2-.78 3.56 3.56 0 0 1 0-.52l.27-.26.27.3.74-.74v.06a2.2 2.2 0 0 1-.13.56v.16l-.05.16c0 .12-.06.24-.08.35s0 .25 0 .37a3.49 3.49 0 0 0 0 .35l.85.06a.67.67 0 0 0 .07-.33v-.1a2 2 0 0 0 0-.24l-.05-.16v-.14a2.23 2.23 0 0 1-.13-.7 1.12 1.12 0 0 1 0-.24 1.62 1.62 0 0 1 .08-.49l.46.3v.18a2.66 2.66 0 0 0 0 .35.91.91 0 0 0 .32-.35l.84-.57q.13 1.11.84 1.11l.84-.84c1.11.93 1.66 1.58 1.66 1.93h.6l.81-.53v.53l-.27.27.27.27a11.63 11.63 0 0 1 4.38-.98h.07l.22.3a.93.93 0 0 0 .07.2l-.29.25.29.26-.44.52v.75l.15.13c-.2 0-.29.22-.29.65h.44v.39l-.44.13.58.9-.58.39c0 .41.39.92 1.16 1.53v.13l-.87 1.81 1 .39V54H67l-.15-.11-.43.11v.26l.14.13h-.14l-.15.13.44.9-.59.13.73.65v.13l-.14.13c-.29 0-.44.09-.44.26v.13l.73.26-.58.75V58c.58 0 .91.34 1 1l-.87.39.58.91-.29.51.44.13v.36a2 2 0 0 0-.87 1v.13l.14.13-.58.52c0 .17.14.25.44.25l.29.78c.29 0 .43.13.43.39-.46 0-.75.29-.87.88.13 1 .47 1.55 1 1.55l-.87 1.66.43 1.55c0 1-.29 1.62-.87 1.69l.14.12v.14l-.14.1v.26h.29v.13c-.23 0-.37.17-.41.51l.26 1.43-.26.52.26.25-.26.88.12.13v.14l.44-.14h.29l-.73 1.17v.13l.14.13-.26.51v.14l.12.12v.13l-.12.13.41.65v.1c-.27 0-.5.17-.7.52l.15.65-1.38-8v-.07L60 48q0-.63-14.95-1.43a.18.18 0 0 0-.13-.06.16.16 0 0 0-.11.05h-.45s.1 0 .15-.16a.23.23 0 0 0 .08-.16s0-.09-.11-.13a.29.29 0 0 0 .1-.21.22.22 0 0 0 0-.14h-.05a.29.29 0 0 0-.21.14.19.19 0 0 0 0 .13.33.33 0 0 0 0 .16h.06a.28.28 0 0 0-.08.19.25.25 0 0 0 0 .16.08.08 0 0 0 .07 0h-.47a.58.58 0 0 0-.19-.3v-.1a1.23 1.23 0 0 0-.05.35h-.1a.53.53 0 0 1 .09-.16l-.08-.06a.14.14 0 0 0-.13-.1.13.13 0 0 0-.12.05l-.05.09H43.39a.42.42 0 0 1-.13.08.19.19 0 0 0-.18-.08H43l.15.17a.09.09 0 0 0 0-.06.24.24 0 0 0 .2.08h.08-.08a.23.23 0 0 0 .18.09h.09l-.13.12c-.12.3-.23.61-.35.91a.26.26 0 0 0-.07.1.12.12 0 0 0-.05.1.14.14 0 0 0 0 .06l-.18.48v-.14a1.8 1.8 0 0 0 .05-.37v-.08a.1.1 0 0 0 0-.08.94.94 0 0 0-.27-.44s0-.07-.12-.07h-.11a.15.15 0 0 0 .08.12h-.1s0-.06-.08-.06v.08a.29.29 0 0 0-.1.06c0-.08-.07-.11-.13-.11a.3.3 0 0 0-.15.05.37.37 0 0 0 .31.14c0 .06 0 .08.07.08a.16.16 0 0 0 .1 0 1.83 1.83 0 0 0 0 .44V48.59a2 2 0 0 1 0 .54.89.89 0 0 1-.43-.27.51.51 0 0 1-.1-.32v-.08a.27.27 0 0 0 .05-.14V48a1.45 1.45 0 0 0-.05-.43.58.58 0 0 0-.3.27.69.69 0 0 0-.11.35.12.12 0 0 0-.1 0 .38.38 0 0 0 .1.24v.54-.05a3.5 3.5 0 0 1-.07.45.61.61 0 0 0 .33.13H42.3q0 .24.18.24v.05c-.83 2.19-1.63 4.32-2.4 6.37l-.11-1.32.12-.72-.12-.71v-4.69h-.1l-.11.19a3.71 3.71 0 0 0 0-.53 4 4 0 0 0-.08-.83 2.71 2.71 0 0 0-.15-.54c-.19.13-.28.49-.28 1.08v.35a3.15 3.15 0 0 1 0 .37 3.52 3.52 0 0 1 0 .64.41.41 0 0 0 .37-.24v.59l.12.17-.41 1.28-.12-.11H39l.24.22-.15.44-.38-.14h-.21l-.14.16h-.29l.29-.41V51c0-.23-.2-.37-.58-.42v-.13h.43c0 .28.1.42.29.42h.62l.29-.55h-.29c-.2 0-.29.14-.29.42-.22 0-.33-.19-.33-.55h-1.65V50c0 .09-.07.15-.2.18a.28.28 0 0 1 .18-.26V50c0-.07 0-.11.05-.11v-.57a.08.08 0 0 1-.07 0c0-.07.06-.11.07-.11h-.16a.25.25 0 0 1 0 .07l-.1.06v-.06a.13.13 0 0 1 0-.06 1.59 1.59 0 0 0-.46.1 1.54 1.54 0 0 1-.56.1h-.28a1.2 1.2 0 0 1-.15-.59 2.12 2.12 0 0 1 0-.24v-.22a.75.75 0 0 0 0-.21v-.14a1.46 1.46 0 0 0 0-.4 1 1 0 0 1 .72-.19h1.06v-.75-.73h-.75c0 .1-.06.16-.2.18V46a.19.19 0 0 1 .13-.18h-.55a2.1 2.1 0 0 0-.4 0c0 .07-.05.12-.1.13h-.23s-.07-.06-.07-.08a.13.13 0 0 1 .07-.1c.14-.06.2-.13.2-.21a.24.24 0 0 0 0-.16.8.8 0 0 1-.05-.37v-.26a1.15 1.15 0 0 0 0-.19.56.56 0 0 1-.26.07h-.05a4.22 4.22 0 0 1 .18-1.1 1.37 1.37 0 0 1 .21-.4 16.18 16.18 0 0 0 .28-3.19v-.57a.67.67 0 0 0 0-.3l-2.48-.12h-1.1l-1.3-.11-.82-.11a2.53 2.53 0 0 1 .48 0h1c1.23 0 2.55.06 4 .18a.19.19 0 0 1 0-.1h.05a15.57 15.57 0 0 1 .37-2.41 1 1 0 0 1 0-.35 1.28 1.28 0 0 1 .07-.42v-.07a.24.24 0 0 0 0-.15l-.09.1-.08.05a1.72 1.72 0 0 1-.43.25 6.53 6.53 0 0 1-.56-1.83.68.68 0 0 1 .23 0 .17.17 0 0 1 .12 0s.05.13.05.27v.16a.78.78 0 0 0 0 .16.15.15 0 0 0 .16.11h.05a.59.59 0 0 1 .28-.51v-.06a.13.13 0 0 1-.13-.08.27.27 0 0 1-.13.19.18.18 0 0 1-.05-.11c0-.07.06-.12.18-.16a.24.24 0 0 1 .17-.18h.08a.17.17 0 0 1 .12.07h.08a3 3 0 0 1-.08-.68.27.27 0 0 1-.23-.11h-.08a.46.46 0 0 1 .2-.34v.05a.33.33 0 0 1 0 .1h.14v-.34H35.2l-.34-.08a3.76 3.76 0 0 0-.61-.05h-.2zm-2.45 12.51v-.16a2.88 2.88 0 0 1 0-.32c0-.46.17-.71.46-.72A1.39 1.39 0 0 1 32 43v.21a2.34 2.34 0 0 0-.05.3V43.8a1.88 1.88 0 0 0-.08.43v.08c0 .07 0 .12.08.14s.22-.17.25-.38a1.89 1.89 0 0 1 0-.29v-.33a2 2 0 0 1 0-.56.27.27 0 0 1 .28-.19h.1l-.08 2h-1.07a2.51 2.51 0 0 0 .05-.62zM33 49v-.83l.22-.19H33l.14-.31h.17v1.32H33zm1.15-5.1a1.74 1.74 0 0 1-.2.62.47.47 0 0 1-.31.27.55.55 0 0 1-.41-.27.44.44 0 0 0 .43-.32 1 1 0 0 0 .06-.35 1.24 1.24 0 0 0 0-.27c-.05-.21-.13-.33-.23-.35-.12 0-.24.14-.36.41v-.92a.81.81 0 0 1 .56.22l.1.08.13.08a.53.53 0 0 0 .26.13v.43zm-1 2.63a1.44 1.44 0 0 1 .18.83v.15h-.11l-.34-.66c.02-.26.12-.36.21-.37zm-1.22-.19a.31.31 0 0 1 .23-.11.4.4 0 0 1 .15 0l-.4.08s-.05-.01-.04-.02zm-2.63.79V47h.2zm7.26 4.43l.08-.06zM34 35.14l-.25.16-.13.08-.13.09a.91.91 0 0 1-.43.1 1 1 0 0 1-.33 0v-1.34h.08a1 1 0 0 1 .76.27 1.27 1.27 0 0 1 .43.64zM32.48 31l1.05.06v.45c0 .18 0 .32-.06.43 0 .29-.19.43-.43.43v-.19l-.13-.18c0-.15-.08-.26-.1-.35a2.17 2.17 0 0 0-.33-.65zm-.1-2.92a.77.77 0 0 1 .43-.13L33 28h.08a.4.4 0 0 0 .15 0 .89.89 0 0 0 .39-.11.53.53 0 0 1 .12.3.76.76 0 0 1-.05.19v.16l-.06.16a1.66 1.66 0 0 0 0 .24 2.32 2.32 0 0 0 0 .24l-1.27-.05zm-1 .7a.62.62 0 0 0 0-.21v-.25a.93.93 0 0 1 .31-.69.64.64 0 0 1 .31.37 1 1 0 0 1 .07.35 1.11 1.11 0 0 1 0 .19.72.72 0 0 1-.21.48.67.67 0 0 1-.43.13h-.13a.91.91 0 0 0 .11-.33zM31 31.2a.85.85 0 0 1 .64-.21h.1a1 1 0 0 1 .73.27v.11c0 .64-.29 1-.89 1a1.93 1.93 0 0 1-.48-.38.73.73 0 0 1-.1-.49 1.69 1.69 0 0 1 0-.3zm-1.76 3.51a.59.59 0 0 1 .13-.18 1.17 1.17 0 0 1 .25-.35.83.83 0 0 1 .56-.19 1.79 1.79 0 0 1 .49.08v.11a1.89 1.89 0 0 1 0 .29V34.93c0 .21.1.32.29.32a.4.4 0 0 0 .15 0v-.56a2.3 2.3 0 0 1 0-.53c.05-.31.2-.46.46-.46h.18a1.18 1.18 0 0 0 .23.48.66.66 0 0 1 .17.19l.08.08.08.11a.81.81 0 0 1 .17.4.87.87 0 0 1-.17.48 6.36 6.36 0 0 0-.87-.05h-.97a4.66 4.66 0 0 1-.84-.11.71.71 0 0 1-.48-.46zm-.54 8.55a2.54 2.54 0 0 1 .16-1c.1-.3.23-.46.41-.46v1.61a1.69 1.69 0 0 1 0 .3v.77h-.1c-.18 0-.31-.1-.41-.32a1.73 1.73 0 0 1-.16-.8zm-.07 3.68c0 .12.06.23.09.35l-.65.29a.53.53 0 0 0-.21.11l-.12.06a.83.83 0 0 1 .87-.81zm-2 .8a3.14 3.14 0 0 0 .07-.51V47a.5.5 0 0 0 0-.15c.06.12.1.18.13.18a.05.05 0 0 0 .05 0 .77.77 0 0 0 .13-.32l.05-.13v-.11c0-.09.06-.16.07-.21s.15-.24.23-.24v.77l-.05.41a2.25 2.25 0 0 1 0 .4v.4c-.33.18-.65.37-1 .58a4.9 4.9 0 0 0 .26-.84zm-10.81 5.61H16q3 0 3 4.19v.88c-.28 2.09-1.36 3.14-3.22 3.14-2.16 0-3.23-1.58-3.23-4.73.04-2.32 1.11-3.48 3.27-3.48zm7.28 25.47c-.57 1.63-2.92 2.45-7.07 2.45h-.62c-3 0-4.45-1-4.45-3.14v-.19c0-.85.21-1.31.62-1.38h1.81l1.22.16h.19l.22-.16 4 .35.21-.19c2.57.14 3.85.66 3.85 1.57h-.22zm8.67-6.22v-.32h-.15v.14Q28.8 69 20.06 69.05H19l-.4-.35-.8.35-.21-.17h-3.38a4.19 4.19 0 0 1-2.42-.52l.4-1.23 2.61.35.61-.16.62.16 3.41-.35q9.9-2.09 9.9-9.77l-.12-.91h.26a4.09 4.09 0 0 0 1.52-.21 15.73 15.73 0 0 0 4.41.47h1.15v-.9c0-.34 0-1 .05-1.6v-.76-.57l.12-.11v-.17l-.13.08c0-.21 0-.41-.05-.6h.18c.19 0 .29-.14.29-.42h.76l.29.55 1-.12.07.37-.19 1.09c0 .47.1.7.31.7v2.14l-.21.36.09.16-.14.19.21.35-.21.36.09.19-.31.52.15.25q-2 5.28-3.65 9.95h-.18l.12-.54-.12-.54c.16-.94.33-1.41.52-1.41v-.36l-.62-.39h-.22a28.28 28.28 0 0 0-.9 7.11c-.35 1-.68 1.9-1 2.81a5.72 5.72 0 0 0-1.11-2.8z"/><path class="cls-1" d="M37.16 121.28H37h.2-.2l.05-.58h.06-.06.06v-.2l.09-.1h-.05v-.4l.05-.08h-.05.05-.05.05v-.45h-9.85a2.48 2.48 0 0 1-.48.06 5.44 5.44 0 0 1-1 .1H25.39a1.27 1.27 0 0 0-.32 0l.2.07c-.38 0-.57 0-.57.05h.09c-.17 0-.28 0-.32.09h-.5c-.13 0-.19.08-.19.11l.13.06h-.22.09-.28l-.13.09h.13a1.18 1.18 0 0 0-.28 0l.15.08-.56.16h-.28q.36 0 .36.06a.38.38 0 0 0-.23.08l.15.1.36.1h-.32l.32.11-.11.07h-.09.09-.05l.2.07a1.69 1.69 0 0 0-.39 0h.24-.13.08-.08a1.48 1.48 0 0 0 .49.1H24.9h-1.56a.91.91 0 0 1 .37.09h-.24.24s0 .07.08.07H24.63h-.61H34.98h-1.62.52c.13 0 .53 0 1.21.1h.09l.41.05h.51a2.22 2.22 0 0 0 .41 0c.35 0 .52 0 .52-.09h-.09a.16.16 0 0 0-.16-.11h-.91.97s0-.07.09-.07l-.09-.08h.09c0-.07-.2-.11-.6-.11H35a1.46 1.46 0 0 0-.37 0h-.15a.64.64 0 0 1-.24 0h2.66v-.15h.19-.19a.32.32 0 0 1 .28-.12h-.15.56-.46zM20.35 121.79l-.13.12c.08.09.13.01.13-.12zM79.21 89.89v-.08a.61.61 0 0 0-.18-.26v-.73l-.66.12H78l-.64-.12-.13.12-.55-.12h-1.9l-.68-.11-.13.11h-.26l-.19-.26h-.27v.18h-2.2c-.25 0-.43.91-.51 2.72l.13.12-.13.11v2.16l-.16.61.16.12 3.72.12.77.11.17-.11.13.11h1.85l.93.12.13-.12.13.12c.25 0 .37-.64.37-1.9v-.5l.13-.11h-.13l.13-.61v-1.38c.23-.08.34-.16.34-.24V90h.08zM6.12.41L5.72 0h-.21l.43.41h.18zM102 29.78a2 2 0 0 0 1-1.14l-.36-.4-.64.76v.18l.16.21-.18.2zM97.69 45.96l-.17-.19-.39.37.36.4.17.01.03-.59zM105.98 33.72l.02-.59-1.17.16v.17l.75.63.4-.37zM101.93 47.64l-.21-.01.2.19-.01.2-.23.59.61-.57.02-.59-.17-.01-.21.2zM89.46 49.36l-.02.38.37.61.79-.55-.72-.83-.42.39zM89.26 16v.21l.19.21c.38 0 .57.16.56.42h.2l.19-.19c0-.23-.3-.44-.93-.64zM95.77 46.08l-.2-.21-.39.37-.04.79.38.02.24-.79.01-.18zM103.98 43.68l-.36-.4-.4.37-.01.2.58.03.19-.2zM101.15 47.61h.2l.39-.39-.17-.01-.42.4zM121.89 36.59l.22-.2-.58-.03-.01.21.36.4.2.01-.2-.19.01-.2zM102.05 49.22h.38l.41-.57v-.21h-.18c0 .4-.22.59-.61.57zM84.33 31v.21l.33 1h.2v-.39c-.17-.55-.35-.82-.53-.82zM86.84 18.68l.38.02-.36-.43-.41-.02.39.43zM88.81 30c-.18-1.45-.86-2.2-2-2.25l-1.36-.06v.18l.77.24v.59h-.38l.17.22v.18l-.18.2h-.2l-.2-.22h-.23l-.44.78.17.6 1.16.05-1 .93.33 1h.38c0-.53.17-.79.44-.78h.17l.2.21h.2l.18-.2-.16-.21v-.36l.4-.37v.39h.38l-.19-.22v-.39a1.53 1.53 0 0 0 1.39-.51zm-1.32-.85l-.17-.15v-.21l.19-.2h.2l.19.22V29l-.21.18zm.94.84h-.58v-.59h.18l.38.4zM87.7 33.3l.05-1.18-.58-.02v.2l.14.6-.18.2.57.2zM94 46.78c-.52 0-.76-.36-.73-1l-1 .17q0 .43.93.63v.18h-.38v.41h1.16zM90.85 5.5h-.1a.19.19 0 0 1-.13.08.19.19 0 0 1 .05.12s0 .07.06.07a.27.27 0 0 0 .12-.08.64.64 0 0 0 0-.15l.12-.08zM91 5h-.09l.08.12v.07a.8.8 0 0 1 0 .16.21.21 0 0 0 .1 0l.08.11.15-.28h.07a.59.59 0 0 1 .18-.2.11.11 0 0 0 .07-.11v-.08h-.08a.23.23 0 0 1-.06.21.15.15 0 0 0-.1.16L91.3 5l-.13.2V5zM91.65 7.08V7a.22.22 0 0 1 0 .08zM91.72 5.75l.24.39a3.37 3.37 0 0 0 .27.34 9.5 9.5 0 0 0-.36-1 .51.51 0 0 1-.15.27zM91.58 5.29l.08.23a.87.87 0 0 1 .2-.16.58.58 0 0 1-.13-.23c-.11.05-.15.11-.15.16zM91.17 6.15h.12v-.23h-.12a1.31 1.31 0 0 1 0 .23zM91.7 6.89a1.77 1.77 0 0 0-.09-.39 3.36 3.36 0 0 1 .06.5.2.2 0 0 0 .03-.11z"/><path class="cls-1" d="M90.88 5.58l.02.01v-.01h-.02zM91.09 4.83h.1-.1zM90.81 6.2a.68.68 0 0 0 .12-.31c.09 0 .13-.1.12-.28h-.07v.1a.36.36 0 0 0-.08.12.88.88 0 0 0-.07.28.12.12 0 0 0-.02.09zM91.13 6.55l.08.19.12-.12-.08-.19-.12.12zM91.56 5.6a.22.22 0 0 0-.1-.19.17.17 0 0 0 0 .11.38.38 0 0 0 .08.24.24.24 0 0 0 .02-.16zM91.4 6.07a.78.78 0 0 0 .09-.27l-.1-.08-.13.16a.24.24 0 0 1 .14.19zM89.5 6.7a.4.4 0 0 0 0 .15c0 .21.12.32.2.34a5.12 5.12 0 0 1-.13-.69c-.04.03-.07.09-.07.2zM87.18 4.52a.29.29 0 0 0-.2.2l.31.15zM87.13 5.93a.13.13 0 0 0-.07 0l.1.23a.41.41 0 0 0 0-.16.11.11 0 0 0 0-.07h-.03zM86.8 3.32l-.03-.07h-.02l.02.04.03.03zM87.05 4.52v-.19a.31.31 0 0 0 .12-.2c-.06 0-.12.06-.15.19h-.12v.24zM87.88 3.65s-.07-.08-.14-.23v.12a.07.07 0 0 0-.07 0l.08.23zM87.61 4.59l-.1-.03-.04.23.08.11.06-.31zM87.51 5.45l-.16-.11-.04.27.13.04.07-.2zM85.44 4.32l.1-.15s-.05 0-.1-.12a.75.75 0 0 1-.1.17.09.09 0 0 1 .07 0zM86.2 5.09a.86.86 0 0 0 .09-.35.37.37 0 0 0 0-.12l-.1.16zM86.78 4.8a.72.72 0 0 1 0-.19s-.07 0-.1.12.05.05.1.07zM88.01 4.12l-.13-.08-.04.23.13.04.04-.19zM85.7 4.52l.11.23h.15l.04-.16-.11-.23a.32.32 0 0 1-.13.08c0-.05 0-.08-.07-.08a1.57 1.57 0 0 0 0 .2zM86.4 4a1.54 1.54 0 0 0 0 .19.21.21 0 0 0 .12.21.46.46 0 0 0-.14.14v.19l.15-.19v-.18zM86.47 3.68c0-.08-.06-.11-.08-.11v.23a.19.19 0 0 0 .08-.12zM92.26 7v-.13a.7.7 0 0 0-.13-.42l-.13.16v-.16l-.14.2.1.15a.69.69 0 0 0-.06.2h.1a.17.17 0 0 0 .11 0h.07a.09.09 0 0 1 .08 0zM87.92 6.69l-.16-.11-.05.23.16.08.05-.2z"/><path class="cls-1" d="M89.22 6.9a.43.43 0 0 1 .06.15v.08h.08s.07 0 .07-.12a.74.74 0 0 0 0-.12l.07.08v-.31a.2.2 0 0 1-.13 0 .24.24 0 0 0 0 .08c-.07 0-.1.07-.1.12s-.08.01-.05.04zM88.77 6.05h.08v-.24c-.07 0-.12.11-.14.32zM88.74 7.1v-.31s-.05 0-.05.12a.74.74 0 0 0 0 .12.1.1 0 0 0 .05.07zM89 6.36v-.24h.13a.68.68 0 0 0-.06-.2A.17.17 0 0 0 89 6a.11.11 0 0 0 0 .08.11.11 0 0 0 0 .07l-.1-.07v.19zM89 6.78a.24.24 0 0 0-.17.13l.31.23.09-.39-.23-.16zM89.07 4.8a.07.07 0 0 0-.06 0h.06z"/><path class="cls-1" d="M89 4.87c0-.08 0-.13.06-.14l-.09-.2a.32.32 0 0 0-.1.19.94.94 0 0 1 0 .31h.05C88.93 5 89 5 89 4.87zM88.62 6.25v.08l-.08.08s0 .06.11.19a.82.82 0 0 0 .1-.24.17.17 0 0 1-.13-.11zM87.91 5.29l-.08-.24h-.08l-.1.12.11.19q.12-.07.15-.07zM87.74 4.36l-.1.15.11.2.12-.2-.13-.15zM88 4c.15 0 .23-.1.22-.28a.08.08 0 0 0-.07 0s-.09.05-.1.15a.23.23 0 0 0-.18-.11.35.35 0 0 0 0 .12c-.02.04.04.12.13.12zM92.19 5.35H92a1.22 1.22 0 0 0 .06.35zM88.53 5.59a.19.19 0 0 0 .2-.2c-.22 0-.33.07-.33.2zM88.33 4.69s.08 0 .13-.12a1.44 1.44 0 0 0-.11-.19c-.08.08-.13.13-.12.16zM86.15 4.16a.8.8 0 0 0 0-.16.76.76 0 0 1-.08-.16l.13.08h.07v-.16h-.06-.05c-.13 0-.2.06-.2.16a.3.3 0 0 0 0 .11s0 .05-.1.12l.16.23zM75.48 4.81s0-.08-.1-.08a.23.23 0 0 1-.11-.19v-.08c0 .06-.07.08-.1.08a.28.28 0 0 0-.13 0s-.05.06 0 .08a.3.3 0 0 0 0 .12.24.24 0 0 1 .13 0 .16.16 0 0 1 .13.07.14.14 0 0 0 .1.08.12.12 0 0 0 .08 0zM75.24 5.59a.41.41 0 0 0 .16 0v-.23h-.15zM75.69 6.17a.14.14 0 0 0 .1-.08s.07-.08.1-.08a.3.3 0 0 0 0-.12c0-.08 0-.11-.13-.11V5.7v.08a.51.51 0 0 0-.14.35.14.14 0 0 0 .07.04zM74.89 5.68a2.88 2.88 0 0 0 0-.35l-.12.39zM75.81 4.76zM75.69 5h.13v-.21h-.13zM73.38 5.52l-.1.11.11.2.13-.15c-.06-.11-.11-.16-.14-.16zM73.54 5.71zM73.58 5.24c-.07-.13-.13-.19-.18-.19s-.13 0-.18.15c.26 0 .38.01.36.04zM74.13 6.08v.2l.1-.16a.07.07 0 0 0-.06 0zM77.15 6.41a.5.5 0 0 1 0-.23h-.13v.23zM74 5.73a.05.05 0 0 0 0-.05zM73.82 5.54s-.12.06-.18.17a1 1 0 0 1 .26 0h.09c-.06-.12-.12-.17-.17-.17zM72.86 5.18s-.14.06-.27.2.14-.07.27-.2zM77.34 4.81h.01l-.01-.04v.04zM77.47 4.77v.01l.05-.01h-.05zM77.37 5a.2.2 0 0 0 .13 0v-.18h-.12zM77.5 5zM79.44 6.36v-.42h-.12l-.12.51zM77.76 6.44a.48.48 0 0 0 .2-.09h.18s.07.07.11.19A1 1 0 0 0 78 6a.25.25 0 0 0 .1-.12c.07 0 .1-.1.1-.23h-.1l-.1-.12c0 .08 0 .12-.08.12v.08a.15.15 0 0 0 0 .12.07.07 0 0 0-.07 0 .17.17 0 0 0-.11 0c0 .11 0 .16.08.15l-.19.36c.05.06.08.08.13.08zM77 5.55h.1l.05-.23-.1-.08h.07v-.12a.16.16 0 0 1 0-.11l-.12.08v.15a.53.53 0 0 0 0 .19.81.81 0 0 1 0 .2v-.08zM76.71 3.93V4a.23.23 0 0 0 .18.08H77a.24.24 0 0 1 .1 0h.05a1.36 1.36 0 0 0-.5-.61.51.51 0 0 0 0 .16.81.81 0 0 0 0 .19.19.19 0 0 1 .06.11zM76.59 4a.23.23 0 0 0-.11 0 .14.14 0 0 0-.12.08 1.18 1.18 0 0 0 .17-.4s-.07-.07-.11-.07-.07 0-.1.12v.17a.61.61 0 0 0 0 .15v.23a.24.24 0 0 0 .13 0s.07 0 .07-.08a.13.13 0 0 0 0-.08c.07-.08.1-.13.1-.16s-.02.04-.03.04zM77 4.35h-.1a1.12 1.12 0 0 1 .06.23h.15a1.39 1.39 0 0 0 0-.27c-.03.01-.05.04-.11.04zM77.37 6a.49.49 0 0 1 .11.19.51.51 0 0 0 0-.16 3 3 0 0 0 0-.35s-.07.07-.21.12.03.2.1.2zM77.62 5.66v-.23.19s-.05.04 0 .04zM77.36 6.56l.2-.12zM81.71 3.78v.08l.07-.31a.1.1 0 0 0-.1.11zM83.51 27.6a.4.4 0 0 0 0 .15.53.53 0 0 0 .23.43v-.08a.51.51 0 0 0-.08-.27.58.58 0 0 1-.06-.23.81.81 0 0 1 0-.2c-.05 0-.1.07-.09.2zM82.32 3.69c-.06 0-.08.06-.08.16v.23a.54.54 0 0 1 .18 0v-.16a.1.1 0 0 0-.05-.08zM89.47 6.66zM84.04 6.77l-.1-.07-.16-.08-.07.24.18.11v-.08l.05.08.1-.2zM80.46 4.08l.07.43q.17 0 .15-.24c0-.13-.1-.19-.18-.19zM81 5.55l.19-.47a.32.32 0 0 0-.2.35zM89.48 6a.69.69 0 0 0 0-.23l-.08-.15s.09-.07.1-.2v-.09c0-.08 0-.12-.11-.11s0 0-.07.16a.81.81 0 0 0 0 .19l-.13.16.1.07-.11.35c.19-.01.29-.08.3-.15zM82.54 4.39v.11a.63.63 0 0 1 0-.23c.04 0 .01.04 0 .12zM83.64 5v-.35h-.1v-.08-.16l-.26.6h.05c.07 0 .11 0 .12-.08a.77.77 0 0 0 0 .15v.12h.25a.41.41 0 0 0-.15-.2.45.45 0 0 1-.06-.19q.08-.01.15.19zM83.55 6.16c-.06 0-.09 0-.1.12s0 0 0 .06a.38.38 0 0 1 .1-.18zM83.52 6.35zM83.11 5.89l.2.04.02-.23-.18-.12-.04.31zM82.49 5.75a.45.45 0 0 0 .18 0 .6.6 0 0 0-.06-.27.19.19 0 0 0-.12.08zM71.1 6c.05 0 .09-.06.12-.19a.9.9 0 0 1-.22-.32c-.07 0-.1.06-.1.11a.4.4 0 0 0 .08.2c.02.1.08.2.12.2zM71.1 3.77a.76.76 0 0 0-.1-.23l-.08.08v.11A1.43 1.43 0 0 0 71 4zM70.91 4.67c.07 0 .14 0 .21-.16a.51.51 0 0 0 .12-.31.11.11 0 0 0 0-.08.24.24 0 0 0 0 .08.23.23 0 0 1-.22.16.45.45 0 0 1-.18 0c0 .06-.08.1-.07.12s0 0 .1.08.1.05.1.07v.08zM71.2 5.05s-.07-.14-.19-.26a1.1 1.1 0 0 0 .19.26zM72.68 5.1l-.13-.23-.15.2.13.15s0-.06.1-.12zM71.6 5.63a.28.28 0 0 0 .15 0 .24.24 0 0 0 .15-.09.09.09 0 0 0-.1-.07.34.34 0 0 0-.2.16zM72.14 3.71a.35.35 0 0 0 0-.12s0-.08-.06-.08a.24.24 0 0 0-.1.05.46.46 0 0 0-.27.24 1.34 1.34 0 0 1 .08.26l.11.24a.27.27 0 0 0 .1-.24V4a1 1 0 0 1-.08-.23H72a.24.24 0 0 0 .14-.06zM80.15 4a.07.07 0 0 0-.07 0A.18.18 0 0 0 80 4s.09.11.28.23v-.11a.14.14 0 0 0-.13-.12zM79.89 4.48l.02-.27-.16-.08-.07.32.21.03zM79.49 3.83a.19.19 0 0 0-.13.07v.28a.16.16 0 0 1 .12 0zM79.33 4.49l.17-.12v-.19h-.11c-.08.15-.07.24-.06.31zM71.21 5.21l-.1.24.11.15a.59.59 0 0 1 .12-.16zM92.61 6.87l-.1-.16-.1.16.1.15.1-.15zM82.83 15.18v.31h.13a.44.44 0 0 0 .07-.24c-.1-.04-.15-.07-.2-.07zM83.33 16.87l.2.09v-.31h-.16a1 1 0 0 1-.04.22zM83.32 16.84s0 .01 0 0zM83.08 16.5l.01.31.18-.01v-.23l-.19-.07zM83.4 15.83c-.13 0-.2.05-.2.16a.5.5 0 0 0 0 .15.48.48 0 0 0 .23-.08s.08-.09.08-.12-.01-.09-.11-.11zM83.68 17h.16a.64.64 0 0 0-.06-.16.11.11 0 0 0-.1.16zM83.57 17.85h.13a.41.41 0 0 0 .07-.28.48.48 0 0 0-.18 0zM83 12.64h-.08v.24h.15a1.06 1.06 0 0 1 0-.19.07.07 0 0 0-.07-.05zM82.62 13l-.18-.07a.21.21 0 0 0-.07.16s0 .09.13.11.13-.08.12-.2zM82.62 15.1V15a1.15 1.15 0 0 0 0 .1zM82.19 16.4a.18.18 0 0 0 .18-.16.55.55 0 0 0 .07-.24v-.11c0-.02-.17.17-.25.51zM83.64 13.84l.18.03.01-.27-.12-.12-.07.36zM83.06 12.91zM82.89 13.46v.2a1 1 0 0 0 .21.11v-.27zM82.63 14.42V15a3.63 3.63 0 0 1 .17-.48.28.28 0 0 1-.17-.1zM82.61 14.4v-.06s-.01.04 0 .06zM91 15a1.54 1.54 0 0 0 0-.19c0-.16-.06-.25-.16-.27v-.04a.29.29 0 0 0-.06-.19c0 .21-.06.32-.06.35l-.21.12.19.55zM91.29 16.21a.36.36 0 0 0-.08-.12l-.1.16.11.16a.3.3 0 0 1 .07-.2zM90.22 17.28c0 .08.07.12.1.12s.07 0 .1-.12a.23.23 0 0 0 .07-.16c0-.05 0-.09-.1-.11a1.34 1.34 0 0 1-.17.27zM89.79 15.15l.07-.12-.11-.19-.12.16zM89.6 14.92s.07-.06.1-.16a1 1 0 0 0 0-.27.17.17 0 0 0-.08-.16.13.13 0 0 0 0 .12.37.37 0 0 0 .08.19.92.92 0 0 0-.2.2.14.14 0 0 0 .1.08zM90.84 18a.31.31 0 0 0 0 .08h.08s-.04-.03-.08-.08zM90.06 17h-.08s-.06 0-.08.12 0 .07.06.07h.08s.08-.19.02-.19zM84.08 18.89v.32a.17.17 0 0 1 .12 0l.06-.23zM84.24 19.24zM84.17 18.23h-.08v.16c0 .03 0 .21.11.23s.12.05.12.08.13-.05.13-.13a.16.16 0 0 0 0-.11c-.1-.16-.18-.23-.28-.23zM89.7 17.06s.15 0 .15-.08 0-.06-.06-.12a.37.37 0 0 0-.2-.11.07.07 0 0 0-.05 0v.15c.1.1.14.16.16.16zM89.87 17.84h-.05a.29.29 0 0 0-.22.31.14.14 0 0 0 .1 0 .09.09 0 0 0 .08 0 .28.28 0 0 1 .15-.08.07.07 0 0 1 .07 0c0-.14 0-.23-.13-.23zM84 14.65h-.07a.59.59 0 0 0 0 .27H84V15a2.09 2.09 0 0 1 .07-.32zM90.65 4.8s-.05-.06-.1-.19l-.15.12.1.23zM83.83 14.61a.14.14 0 0 0-.1-.08s-.06.07-.07.2a.45.45 0 0 0 0 .16c0 .08 0 .11.08.11a.12.12 0 0 0 .08 0 1.5 1.5 0 0 0 .01-.39zM82.18 14.73v.19a.23.23 0 0 1 .07-.16.11.11 0 0 0-.07-.03zM90.54 5.54l.15-.08a.18.18 0 0 1-.09 0 .12.12 0 0 0-.06.08zM84.23 16.47c0 .11 0 .16.06.16v-.24s-.04.03-.06.08zM83.38 13.68c-.12.09-.17.27-.17.55a.8.8 0 0 1 .28-.24v-.07a.57.57 0 0 0 .14-.24.15.15 0 0 0-.2 0zM84.19 14.52v-.35.24s-.06 0-.08.12v.07a.25.25 0 0 1 .08-.08zM90.69 5.46h.01-.01zM84.27 15.73a.77.77 0 0 0 0-.15q0-.16-.21-.27c.04.23.1.38.21.42zM80.58 3.53l.16.16.05-.27h-.2l-.01.11zM77.32 3.75a1 1 0 0 1-.17.6c.24-.06.38-.29.42-.68-.08 0-.13 0-.13-.15v-.08a.18.18 0 0 0 0-.1h-.17a1.16 1.16 0 0 1 .05.41zM91.68 7.35v.04h.03l-.03-.04zM90.81 4.76a.07.07 0 0 1-.06 0v.08a.34.34 0 0 0 .07.19.55.55 0 0 1 .11.16v-.12l.07-.2-.09.13v-.23zM90.9 4.52v-.08a.25.25 0 0 0-.13-.23l-.09.44a.19.19 0 0 0 .12.07c.06 0 .09-.07.1-.2zM91 5.34h-.06zM90.44 6.79a.13.13 0 0 0 .1 0c0 .08.08.12.11.12s.15-.07.25-.2h-.13s0-.08-.07-.08-.11 0-.16.12l-.08-.23a.81.81 0 0 0 0-.15.7.7 0 0 1-.12.35c0 .04.05.07.1.07zM83.47 15.4a.72.72 0 0 0 0 .19.15.15 0 0 0 0 .12h.13a.32.32 0 0 0 .13.07.48.48 0 0 0-.26-.38zM82.29 20s-.05 0-.05.12 0 0 .1.08c.03-.2.01-.2-.05-.2zM89.31 14.34c0 .1.12.16.21.15a.74.74 0 0 0 0-.12.38.38 0 0 0-.13-.3.17.17 0 0 0-.11 0 .14.14 0 0 0-.12.08.86.86 0 0 1 .15.19zM82.02 20.03l.18.11.04-.31-.15-.04-.07.24zM81.84 21.32v.19a1.14 1.14 0 0 1 0 .28s.07-.07.1-.2.07-.08.1-.08c.06-.05-.04-.12-.2-.19zM90.66 5.27h.06a.73.73 0 0 0-.06-.14.24.24 0 0 0 0 .08zM82.3 18.93c0 .05-.06.11-.18.16a.39.39 0 0 0-.12.28.19.19 0 0 0 .1 0c.11.03.17-.13.2-.44zM83.31 12.95l-.07.19.13.04.07-.2-.13-.03zM83.49 14a1.45 1.45 0 0 1 0 .32h.25v-.2a.65.65 0 0 0-.25-.12zM83.41 12.94v-.23a.88.88 0 0 1 0-.2h-.08s-.09 0-.12.16a.86.86 0 0 1 .2.27zM90.66 5.27l-.09.16h.05c.01-.06.03-.11.04-.16zM85.31 4.25zM90.7 5.46l.19-.09-.17-.08a.18.18 0 0 1 0 .09s.01.07-.02.08zM83.22 12.69s-.05.08-.05.23V13a1.08 1.08 0 0 0 .05-.31zM85 17.47zM72.62 18.28a2 2 0 0 0 .09-.28.1.1 0 0 1 0-.07v.08a.1.1 0 0 1-.08 0l.08.11zM73 14.37s.06 0 .12-.16S73 14 73 14l-.1.12zM73.42 17.71s.06 0 .08-.12l-.19-.26c-.08 0-.13.05-.13.08a.38.38 0 0 0 .11.19c.05.08.1.12.13.11zM71.85 12.45c.07.07.11.11.13.11l.1-.19-.16-.28-.1.16-.1.12a.13.13 0 0 0 .13.08zM72.43 15.55v-.15a1.75 1.75 0 0 1-.16-.2.22.22 0 0 0 0 .12.72.72 0 0 0 .11.31.19.19 0 0 0 .05-.08zM71.86 17.63l.11.19.12-.15a.22.22 0 0 0 .1-.09l-.13-.19zM72.74 17.89c.11-.09.17-.16.17-.24a.22.22 0 0 0-.13-.19h-.08s-.07 0-.07.16a.9.9 0 0 0 0 .15zM84.84 16.54l.19.07c0-.05-.06-.1-.16-.15v-.12h.1a.07.07 0 0 0 .06 0 1.72 1.72 0 0 1 0-.31h-.15a2 2 0 0 0 0 .24.54.54 0 0 0 0 .19c-.11.05-.09.08-.04.08zM89.73 5.52v-.08a1.14 1.14 0 0 0 0-.23h.1v-.16.12l.12-.2-.11-.15-.1.16V5l-.09.11-.06-.06v.31a.6.6 0 0 1-.07.27.28.28 0 0 0 .15 0s.06 0 .06-.11zM85 17.51c-.06.05-.1.09-.1.11s0 .08.1.08v.07l.16.08a2.24 2.24 0 0 1 0-.31.05.05 0 0 1-.05 0H85zM89.76 7.2zM73.09 17.53l-.08-.2v.12a1.08 1.08 0 0 0 .14.46.29.29 0 0 0 .07-.19.41.41 0 0 0 0-.12.29.29 0 0 0-.13-.07zM72.33 19.22q0 .12.06.15a1.11 1.11 0 0 0 .14-.47.3.3 0 0 0 0-.15 1.22 1.22 0 0 0-.2.47zM72 17.94l-.14-.27-.1.16a.77.77 0 0 1 .11.27.36.36 0 0 1 .13-.16zM84.84 3.68V3.6a.2.2 0 0 1-.13 0 .08.08 0 0 0-.08 0s-.06 0-.09.12l.05.07a.32.32 0 0 1-.16-.06.73.73 0 0 0 0 .27.88.88 0 0 0 0 .2v.07a.75.75 0 0 0 .1-.2c.09 0 .13.07.13.12s.16 0 .15-.08a.19.19 0 0 0 0-.12v-.08a.1.1 0 0 1 0-.07h.08c-.09-.1-.05-.14-.05-.16zm-.35.2h.05l.06.1zM84.28 6.14l.07-.23-.18-.08v.24h.07-.07a.74.74 0 0 1 0 .14 1 1 0 0 1 0-.14zM84.19 6.3a.06.06 0 0 0 0 .06v-.11zM84.49 6.26V6.1a.37.37 0 0 0-.07.16zM85.04 6.99l.1.03.03-.19-.08-.08-.05.24zM71.94 22.19l-.13-.19-.2.23a.55.55 0 0 1 .11.2.89.89 0 0 1 .22-.24zM85.21 6.48a.19.19 0 0 0-.13-.08c-.09 0-.13.09-.15.28a.28.28 0 0 0 .13 0c.07.03.12-.05.15-.2zM70.86 21.82c0-.05 0-.08.08-.08l-.08-.11-.06-.12-.09.2.1.19zM71.44 14.83l.1-.16h-.05c0-.08-.06-.12-.08-.12l-.2.28.19.11a.12.12 0 0 1 .04-.11zM70.58 20.77a.28.28 0 0 1-.13-.15l-.12.16.13.19zM79.59 6.36V6.2a.21.21 0 0 1 0-.07v-.08a.33.33 0 0 0-.1.11v.09a.34.34 0 0 0 .1.11zM84.24 6.54a.23.23 0 0 0 .15-.2.24.24 0 0 1-.13 0 1.28 1.28 0 0 1 0 .17zM84.19 6.61v-.07a.44.44 0 0 1-.18 0zM85.14 19.34v.39a.41.41 0 0 0 .12 0 .16.16 0 0 1 .13-.08v-.28zM85.65 18.2a.29.29 0 0 0 .18.07.47.47 0 0 0 0-.23.57.57 0 0 0-.18 0zM85.18 17.9s0 .14.06.35.05.15.16.15a1.68 1.68 0 0 0 0-.2.32.32 0 0 0-.22-.3zM88.88 17h.18l.02-.28-.2.01V17zM85.67 18zM87.21 14.89v-.06a1.57 1.57 0 0 1-.06.3.67.67 0 0 0 .06-.24zM84.84 19.74v.11l.13.08a3 3 0 0 1 0-.32h-.12s-.01.05-.01.13zM85.98 18.07h.15l.02-.27h-.18l.01.27zM88.32 15.65a.33.33 0 0 0 .13.11.81.81 0 0 0 0-.15.11.11 0 0 0 0-.08s-.08-.09-.08-.12zM88.56 16.38a.82.82 0 0 1 0-.2c-.06 0-.1.05-.09.16s.04.04.09.04zM87.17 14.83v-.06c0-.06 0-.16-.08-.19v-.12s-.07.07-.07.2 0 0 .08 0 0 .07-.08.08-.07 0-.12-.08v.12h.21zM88.63 13.62a.39.39 0 0 0 0 .15.4.4 0 0 0 0 .15.16.16 0 0 0 0 .08.11.11 0 0 0 0 .08v0a.64.64 0 0 0 0-.16 1.05 1.05 0 0 1 .14-.23v-.08c0-.13 0-.2-.08-.19a.51.51 0 0 1 0-.16h-.16a1.14 1.14 0 0 0 0 .28.74.74 0 0 1 0 .15zM84.55 14.6l.15.03.02-.19-.13-.08-.04.24zM88.32 13.62v.2a1.32 1.32 0 0 1 0-.2c.07 0 .1 0 .1-.08a.54.54 0 0 0 0-.19c-.11.08-.15.14-.15.19s0 .06.05.08zM88.29 13.39l-.08-.16a.44.44 0 0 1 0-.15H88a.24.24 0 0 0 0 .08c0 .13.11.21.29.23zM89.62 4a.08.08 0 0 1 .07 0 .13.13 0 0 0 0-.08.41.41 0 0 0-.08-.19.21.21 0 0 0-.1.16.21.21 0 0 0 0 .12s.09-.01.11-.01z"/><path class="cls-1" d="M90.28 6.48l-.18-.11v.39l.14.28c.08-.06.12-.11.12-.16s0-.12-.13-.2h.1zM85.24 17.15v.24c0 .15 0 .23.15.23a.88.88 0 0 0 0-.2c.03-.18-.03-.27-.15-.27zM90 4.62s0-.08.07-.08L90 4.46a.49.49 0 0 0 0-.15.58.58 0 0 0-.13.16 1 1 0 0 0 .13.23v-.08zM89.88 6.84a.25.25 0 0 0 0 .16.47.47 0 0 0 .1.19V7a.22.22 0 0 0-.1-.16zM86.99 17.86l.2-.01v-.19l-.21-.03.01.23zM85.25 18.79c-.07 0-.1 0-.1.08a.33.33 0 0 1 .16.08c-.01-.11-.03-.16-.06-.16zM85.41 13.21a1.17 1.17 0 0 0-.25-.69v.08a1.11 1.11 0 0 0 .25.61zM86.08 17.29h.16c0-.08.06-.12.1-.12a.24.24 0 0 0-.07-.12.2.2 0 0 1-.09-.15s-.07.16-.1.39zM86.57 18.26a.28.28 0 0 0 .17-.09.23.23 0 0 0-.08-.11s-.06 0-.08-.08-.06.08-.14.08.06.2.13.2zM93.19 4.05a.53.53 0 0 0-.06-.24.79.79 0 0 1-.12.24.41.41 0 0 0 0 .16.3.3 0 0 0 .05.15.39.39 0 0 0 .13-.31zM92.19 7.22l.04-.19-.12-.04-.08.2.16.03zM85.53 15.12a.73.73 0 0 0 .11.27 2.14 2.14 0 0 1 .26.46.36.36 0 0 0 0-.11.21.21 0 0 0 0-.12.35.35 0 0 1 0-.12.25.25 0 0 1 .13-.23H86a.91.91 0 0 0 .13-.16h.08V15h-.06c.07 0 .11 0 .12-.05a.12.12 0 0 0-.08-.12.12.12 0 0 0-.08 0 4 4 0 0 0-.13-1.32l-.19.74V14a.14.14 0 0 0-.1.15.45.45 0 0 0 .06.2l-.24.82s.02-.02.02-.05zM92.4 5a.24.24 0 0 0-.11 0l.08.19c0-.09.03-.13.03-.19zM68.86 69a.41.41 0 0 0 0 .19A.25.25 0 0 0 69 69a.36.36 0 0 0 0-.1h.07a.22.22 0 0 0 .21-.11h-.34v.08-.05a.59.59 0 0 0-.08.18zM87.52 119.55l-.15-.11-.07.21h.2l.02-.1zM90.79 119.44A.62.62 0 0 1 91 119a.51.51 0 0 0-.43.46c.09 0 .13 0 .13.11v.05c0 .08.07.12.17.13h.06a.59.59 0 0 1-.14-.31zM83 117.45a.22.22 0 0 0 .13.06c.08 0 .13-.06.15-.19a.25.25 0 0 0-.13 0c-.15-.03-.15.03-.15.13zM83.01 117.22l.08.05.05-.16-.1-.03-.03.14zM91.6 119.76l-.07.05h.1l-.03-.05zM96.65 120.05l-.01.01h.02l-.01-.01zM96.11 120h-.1.29-.19zM91.91 111.4a.17.17 0 0 0-.07-.13c-.08 0-.11-.06-.11-.08s-.08 0-.08 0a.09.09 0 0 0 0 .06.23.23 0 0 0 .26.15zM91.22 111.43v.08h.18v-.16h-.13zM83.09 116.49l-.08-.03-.08.14.13.08.03-.19zM81.86 118.72l.11-.11v-.22a.4.4 0 0 0-.1.25.19.19 0 0 0-.01.08zM83.06 116.95l.08-.19-.18-.03-.05-.05-.03.02-.1-.07-.02.18.12.03h-.05l.05.03.05-.06v.06l.13.08zM91.07 110.84c.05 0 .11-.07.18-.19v-.08c0-.07 0-.11-.08-.11H91v.38zM82 114.19h-.06a1.2 1.2 0 0 0 .18.16.17.17 0 0 1 .13-.19v-.06a.58.58 0 0 1-.21 0 .45.45 0 0 1 0 .11l-.04-.02zM82.42 118.79a.93.93 0 0 0-.1-.15h-.15v.13l.1.16a.34.34 0 0 1 .13-.05.09.09 0 0 0 .08.05v-.14zM82.12 116.12l.15.05.03-.16-.13-.05-.05.16zM82.53 116.78h-.08a.17.17 0 0 0-.15.19.17.17 0 0 0 .1 0l.13-.08s.01-.11 0-.11zM82.68 118.93l-.1.1.1.09a.84.84 0 0 1 .1-.12.13.13 0 0 1-.08 0zM82.81 119zM82.65 114.72l-.07-.16h-.07a.35.35 0 0 0 0 .18.27.27 0 0 0 .14-.02zM87.17 105.34a.43.43 0 0 1 .12.11.5.5 0 0 0 .13-.11 1.44 1.44 0 0 1-.07-.16.49.49 0 0 1-.18.16zM89.64 110.14l.15.03.05-.17-.15-.05-.05.19zM89.46 104.11h-.15a.76.76 0 0 0 0 .21h.15a.51.51 0 0 0 0-.21zM89.67 109.74a.13.13 0 0 1 0-.08h-.15v.16h.15a.06.06 0 0 1 0-.08zM88.21 104.38l-.2-.06v.19h.13a.87.87 0 0 1 .07-.13zM86.86 104.24v.06h.13v-.19a.22.22 0 0 1-.12 0 .33.33 0 0 1-.01.13zM88.16 104.57zM88.39 108.24c0-.09-.13-.14-.28-.14 0 .11 0 .16.15.16zM88.24 107.09c.07 0 .1-.08.1-.11s0-.1-.13-.14a.2.2 0 0 0-.07.14l-.13.11a.1.1 0 0 0 .1.08.24.24 0 0 0 .13-.08zM88.11 105.37v-.05h-.16.1zM89.28 110.09a.3.3 0 0 0 .25.13.11.11 0 0 0-.07-.11.19.19 0 0 1-.08-.13c-.06.02-.1.02-.1.11zM87.55 104.81v.19h.13v-.14h-.08zM87.88 103.39a.2.2 0 0 1 0-.11c-.07 0-.12 0-.13.16s.06.3.18.3a.27.27 0 0 0 0-.11.93.93 0 0 0 0-.14.19.19 0 0 1-.05-.1zM90 110.17c.12 0 .18-.06.18-.08s0 0-.08-.06-.06-.13-.07-.13l-.03.1V110.17zM82 119a.4.4 0 0 0-.06.11l.08.11-.13-.06h-.07a.27.27 0 0 0 0 .1c.14 0 .21 0 .21-.1a.23.23 0 0 0 0-.09l.11-.08zM87.5 107.59h.13l.02-.16-.15.03v.13zM90.56 110.35a.49.49 0 0 1 0-.14c-.14 0-.23.15-.26.41a.59.59 0 0 0 .18-.06c.02-.17.06-.21.08-.21zM90.53 110.73v.13h.15v-.16zM90.61 110.6a.28.28 0 0 0 .13-.06v-.16h-.15a.8.8 0 0 0 .02.22zM90.99 111.24l-.03-.13-.15-.06.05.19h.13zM79.8 118.64a.19.19 0 0 0-.13.08l.1.13c.09-.06.13-.09.13-.11zM79.06 118.55a.09.09 0 0 0 .06 0h-.06zM79.39 117.7h-.08v.16c.07 0 .12-.07.16-.22zM79.16 118.5c0 .06 0 .09-.06.1l.09.14c.07 0 .1-.1.1-.13a1.27 1.27 0 0 1 0-.22c-.08 0-.11.04-.13.11zM79.75 118h-.13c-.12 0-.19 0-.2.13.22.02.33-.02.33-.13zM79.21 117.48v.16H79a.31.31 0 0 0 .06.13.17.17 0 0 0 .1 0 .09.09 0 0 0 0-.06l.1.06v-.14zM80.11 112.77a.19.19 0 0 1 0 .1h.15v-.05c0-.05-.09-.14-.28-.16zM80 112.5v-.14a.59.59 0 0 1 0 .14h-.1a.24.24 0 0 0 .05.14c.1-.06.15-.1.15-.14s-.05.02-.1 0zM88.14 109.52a.44.44 0 0 0 0 .14.19.19 0 0 0 0 .13.18.18 0 0 0 .13.06.37.37 0 0 0 .15-.06c.02-.13-.08-.21-.28-.27zM79.9 110.65s0-.05-.08-.05a.81.81 0 0 1 0 .14c.05.02.08-.02.08-.09zM78.5 119.06a.08.08 0 0 1-.08 0 .08.08 0 0 0 0 .06.19.19 0 0 0 .07.13c.07 0 .1-.07.1-.1a.13.13 0 0 0 0-.09h-.09zM79.16 117.19a.25.25 0 0 0 .18-.08l-.3-.16-.11.27.16.08zM79.54 113.28l.13.02.08-.13-.13-.03-.08.14zM79.34 113l.13.06.07-.08a.07.07 0 0 0-.07-.06.52.52 0 0 0-.13.08zM79.88 111.13a.07.07 0 0 0 0 .06s.08.06.08.08l.07-.16a.2.2 0 0 0-.12-.08.15.15 0 0 0-.03.1zM79.52 110.17h-.18l-.03.18h.21v-.18zM78.7 117.27z"/><path class="cls-1" d="M79 117.11a.22.22 0 0 1 0-.11h-.08s-.07 0-.07.08a.45.45 0 0 0 0 .08h-.07v.21a.23.23 0 0 1 .13 0h.06c.06 0 .1 0 .1-.08s-.07-.17-.07-.18zM78.68 117.72a.35.35 0 0 0 0 .16l.08.11s-.08 0-.1.14v.05s0 .08.1.08.06 0 .07-.11a.34.34 0 0 0 0-.13l.13-.11h-.1l.13-.24c-.2-.05-.29 0-.31.05z"/><path class="cls-1" d="M78.42 118v.06a.38.38 0 0 0 .06.16h-.11v.11-.09l-.12.13v-1.32h.06a.14.14 0 0 0 .06-.1s0-.07-.11-.14v-.16l-.13-.14h.13l-.13-.72v-.62a.19.19 0 0 1 .07.13s.08.09.1.09 0 0 0-.09v-.08c0-.1-.07-.16-.12-.16v-.5l.13-.12h-.21l-.1-4.32a1.07 1.07 0 0 1 .18-.19.1.1 0 0 0-.2 0l-.17-6v-.15l-.13-.14h.13l-.13-1v-3.15l-.13-.76.13-.15c-.09-1.29-.26-1.93-.52-1.93l-5.79-.29c-.2 0-.38 1.2-.56 3.61v.14l-.39-.14h-.16l.29.86-.82 4.63v.15l.14.14-.51.62.13.72a.74.74 0 0 1-.82.62v.29l1.2-.29H70l-.5 3.68.13.15-.82 7.31c0 .31.49.47 1.46.47h2.56l1 .15.13-.15.43.29.13-.14h.26l.69.14.11-.14h.13l.13.14.56-.14h1.08l.69.14v-.14l.13-.15V118.48l.09.1.1-.11a.38.38 0 0 0 .11-.08v.06-.22a.31.31 0 0 1 .08-.18.4.4 0 0 0-.15 0l-.11-.05zM79.93 113.52a.62.62 0 0 0 .07.16l.08-.05c0-.09-.06-.15-.08-.16s0 .01-.07.05zM81.1 117.78l-.1-.17a.26.26 0 0 0 0 .11.09.09 0 0 0 0 .06zM81.28 115.1a.23.23 0 0 0-.13.21c0 .08-.05.11-.15.11s.09.11.12.11.1 0 .13-.11a.37.37 0 0 0 .08-.21.3.3 0 0 0-.05-.11zM80.72 117.99l-.08.14.15.08.05-.19-.12-.03zM81.15 118.64l-.31-.11.11.24a.25.25 0 0 0 .2-.13zM81 118.9a.27.27 0 0 0-.13.13H81c.06 0 .11 0 .15-.13h.13v-.16h-.16zM81.71 119.17a.39.39 0 0 0 0-.14c0-.07 0-.11-.11-.14a.38.38 0 0 0 .13-.1v-.13l-.15.13v.12zM81.74 115.66a.15.15 0 0 0 0-.08c0-.07-.07-.15-.2-.24s.06.23.2.32zM80.08 113.14s.08 0 .1-.13a.15.15 0 0 0-.13-.06v-.11h-.15l-.06.13c.08.11.16.17.24.17zM81.35 118.58a.39.39 0 0 1 0 .14.14.14 0 0 0 .1-.08s-.04-.04-.1-.06zM81.3 119.6l.03.05h.02l-.02-.02-.03-.03zM80.23 119.36s.06 0 .13.16v-.08a.11.11 0 0 0 .08 0l-.08-.16zM80.28 118.93l-.13-.03-.04.13.12.06.05-.16zM80.26 119.22s-.05-.08-.15-.1-.23.06-.23.19h.07s.09 0 .1-.11a.24.24 0 0 0 .18.09.23.23 0 0 0 .03-.07zM81.63 119.36c0 .06.06.08.08.08v-.16s-.08.06-.08.08zM80.49 116.57a.15.15 0 0 0-.08 0c-.1 0-.19.09-.28.29h.36v-.08c.01-.16 0-.19 0-.21zM80.46 117.19l-.15-.06-.05.14.15.08.05-.16zM80.51 118.72l.1.02.06-.16-.08-.08-.08.22zM80.26 118.77l.13.11.1-.11-.1-.13-.13.13zM80.23 118.23l.08.16h.08l.1-.09-.1-.13a.42.42 0 0 1-.16.06zM86.4 119.36l-.08.21c.07 0 .1 0 .1-.08zM94.13 118.13s.01.02 0 0zM94.51 118.15h-.34a.26.26 0 0 0 .16.09.3.3 0 0 0 .18-.09zM94 117.75l-.1.11zM93.26 118.15a1.39 1.39 0 0 0 0 .24l.12-.26zM94.74 118.61a.22.22 0 0 0 .18-.11h-.36c.07.06.13.11.18.11zM92.9 118.21a.5.5 0 0 0-.15 0v.14h.15zM94.61 118.18zM95.4 117c.1.11.16.16.18.16a.18.18 0 0 0 .05-.11l-.1-.1zM95.5 118.58l.13.16.15-.13-.13-.11s-.08.04-.15.08zM90.89 118a.13.13 0 0 0-.1-.14s-.07-.06-.11-.13a.23.23 0 0 0 0 .11v.24c0 .11.07-.03.21-.08zM91 118.9a1.54 1.54 0 0 0 0 .19.06.06 0 0 1 0-.06h.13a.5.5 0 0 1 0-.15zM91.48 119.68a.23.23 0 0 0 0-.11.69.69 0 0 0 0-.13c-.06 0-.08-.07-.08-.11a.28.28 0 0 0-.18-.06h-.08a.17.17 0 0 1-.1 0h-.05a1.18 1.18 0 0 0 .49.41zM92.67 118.72s0 .05.1.05a.17.17 0 0 1 .1.14.14.14 0 0 1 .1 0 .25.25 0 0 0 .13 0v-.05a.31.31 0 0 0 0-.08.34.34 0 0 1-.13 0 .17.17 0 0 1-.13-.05.16.16 0 0 0-.1 0 .11.11 0 0 0-.07-.01zM88.82 107l.13-.16c0-.09-.1-.13-.15-.13s-.09 0-.13.1a.31.31 0 0 0 0 .11c0 .06 0 .08.1.08zM90.53 118.13v.15a.08.08 0 0 0 0-.07v-.06s.05-.02 0-.02zM91.25 118.28a.35.35 0 0 1 0-.13.09.09 0 0 0-.08.06H91l-.05.16h.1H91v.08a.15.15 0 0 1 0 .08h.13v-.11a.26.26 0 0 0 .12-.14zM92.44 118.58h-.12v.14h.13zM91.5 119.28h.1a.17.17 0 0 0 .12 0 .66.66 0 0 0-.17.27.14.14 0 0 0 .1 0 .14.14 0 0 0 .1-.08v-.16a.31.31 0 0 0 0-.11v-.16h-.13c-.05 0-.07 0-.07.06-.02.12-.05.16-.05.18zM92.57 117.83a.19.19 0 0 0-.1 0 .14.14 0 0 0-.1.06.19.19 0 0 1-.1 0 .2.2 0 0 0 0 .08c0 .05 0 .08.13.08v0a.34.34 0 0 0 .17-.22zM92.32 118.77zM94.76 118.28l.11-.07-.11-.14-.13.1c.06.07.1.11.13.11zM96.78 117.59a.15.15 0 0 0-.08 0l-.1.11v.06h.1a.5.5 0 0 0 .26-.1c-.09-.04-.13-.07-.18-.07zM96.93 118.15a.73.73 0 0 1 .2.19c.07 0 .11 0 .11-.08s0-.08-.08-.13-.07-.11-.1-.11-.06.04-.13.13zM96.8 118.37l.13.16.1-.16-.1-.11a.58.58 0 0 1-.13.11zM97.11 116.41a.15.15 0 0 0 0 .08.22.22 0 0 0 .21.11 1 1 0 0 0-.15-.27c-.04.01-.06.04-.06.08zM96.55 116.36l-.13.1.1.16.08-.05.08-.11a.21.21 0 0 1-.13-.1zM97.16 117.22l.15.13v-.08h.07a1.21 1.21 0 0 1-.1-.16zM96.06 117.11a.47.47 0 0 0 .1.16.44.44 0 0 1 .16-.08l-.13-.19s-.04.05-.13.11zM95.94 119.63v.05a.19.19 0 0 0 .1 0 .44.44 0 0 0 .28-.16.75.75 0 0 1-.08-.18l-.1-.17a.18.18 0 0 0-.1.17.5.5 0 0 1 .07.16h-.2a.13.13 0 0 0 .03.13zM96.24 118.26a.12.12 0 0 0 .11 0 .48.48 0 0 0 .2-.08.39.39 0 0 0-.15 0 .25.25 0 0 0-.16.08zM97.54 119.36a.31.31 0 0 0 0 .08v.06c.05 0 .07.06.07.08a.29.29 0 0 0 .08-.22.93.93 0 0 0-.1-.38s-.05 0-.05.09a.4.4 0 0 0 .1.24.15.15 0 0 1-.1.05zM97.77 119.84a.3.3 0 0 0-.07-.16.09.09 0 0 1-.06 0h-.07a.53.53 0 0 0 .13.21s.07-.02.07-.05zM97.87 118.21a.47.47 0 0 0-.17-.3.19.19 0 0 1 0 .08.79.79 0 0 1 0 .24v.08a.5.5 0 0 0 0 .19.39.39 0 0 0 .17-.29zM95.89 117.27zM95.81 117.37v-.05zM96.93 118.64s.06.1.17.19-.1-.09-.17-.19zM97.41 119.06h-.1c-.1 0-.1 0-.1-.06s0 0 .05 0h-.05a.29.29 0 0 0-.2.11.28.28 0 0 0-.13.21.09.09 0 0 0 0 .06.09.09 0 0 0 0-.06.26.26 0 0 1 .23-.1h.18s.12-.14.12-.16zM97 119.52a.75.75 0 0 0 .1.16l.08-.05v-.08l-.13-.14zM97.44 116.49c.07.07.11.11.13.11h.1a.16.16 0 0 0 0-.08l-.08-.11zM97.29 118.28c.07.08.11.11.12.11l.21-.16a.27.27 0 0 1-.13-.13s0 .06-.08.13zM95.56 118.39a.94.94 0 0 0-.26.14.77.77 0 0 0 .26-.14zM84.69 116.89a.18.18 0 0 0-.1 0s-.07 0-.07.1v.01l.22.1a.19.19 0 0 0 .08-.13s-.04-.06-.13-.08zM84.9 118.53h-.18a.22.22 0 0 0 0-.11v-.08h-.25a.2.2 0 0 0 .07.11.3.3 0 0 1 0 .14s-.1 0-.15-.11v.24a.27.27 0 0 0 .1 0 .89.89 0 0 1 0 .11zM84.39 116.63l.13.05.07-.22-.18-.02-.02.19zM84.72 117.61h-.08v.11s.06-.05.08-.11zM84.29 117.19l-.05-.06-.11.14.11.05.15.06.08-.16-.18-.09v.06zM83.88 117.7l-.08.16h.18v-.16h-.06.08v-.1a.69.69 0 0 1 0 .1zM83.78 117.56a.3.3 0 0 1 .12 0 .74.74 0 0 1 0-.12c-.06.01-.11.05-.12.12zM84 117.37h.18zM83.93 116.06l.1.06.1-.16-.13-.03-.07.13z"/><path class="cls-1" d="M84 117.59a.19.19 0 0 0 0 .07v-.07zM88.93 110.25h-.06c-.08 0-.12 0-.12.13l.23.08s.07-.07.07-.11-.05-.07-.12-.1zM88.85 105.13v.08a.71.71 0 0 0 .2.05v-.18l-.12-.06s-.03.06-.08.11zM89.23 107.09a.27.27 0 0 0 0-.08l-.05-.06-.11.22c.12 0 .16-.03.16-.08zM88.87 107.35a1 1 0 0 0-.12.25s.07-.09.12-.25zM84.82 118.02l.18.08.05-.22-.2-.02-.03.16zM85.18 116.63l-.13-.06-.08.16.16.08.05-.18zM83.55 117.08l-.16-.08-.02.19.13.03.05-.14zM89.36 109.87l-.15-.1-.03.21.13.02.05-.13zM90.66 118.74v-.01l-.05.01h.05zM83.27 119.38v.06a.23.23 0 0 1 .13 0h.07c.07 0 .07 0 .1-.08a.3.3 0 0 1 .14 0 .31.31 0 0 0 .06-.19.5.5 0 0 0 0-.14.85.85 0 0 0-.11.14q-.12 0-.12-.09c-.1 0-.16 0-.16.06s0 0 .06.08 0 0 0 .06h-.08c-.05.06-.09.09-.09.1zm.35-.13h-.05l-.06-.07zM88.8 118.9l-.18.08v.14h.1a1.54 1.54 0 0 1 .08-.22zM88.57 117.61l.05.11a.09.09 0 0 1 0 .06h-.06a.26.26 0 0 0 .11-.07v-.07a.51.51 0 0 0-.1-.03zM88.72 119.14a.23.23 0 0 1-.13 0v.19a.21.21 0 0 0 .13 0v-.19zM88.24 118.9l-.03.19.15.05.08-.21-.2-.03zM83.65 116.2l.15.05.05-.16-.18-.03-.02.14zM90.78 118.72v-.14a.21.21 0 0 0-.12 0v.12zM90.79 118.72h-.01l.01.02v-.02zM88 119.28a.23.23 0 0 0 .11 0s-.1-.07-.28-.16c0 .06 0 .09.1.11a.08.08 0 0 0 .07.05zM90.63 118.61zM88.72 117.61v.29h.13l.13-.35zM87.65 119.17l-.05-.29a.13.13 0 0 0-.15.15.17.17 0 0 0 .18.14zM85.59 118.93a.09.09 0 0 0 0-.08.4.4 0 0 1-.06.16.11.11 0 0 0 .06-.08zM83.65 117.72a.2.2 0 0 0 .07-.11zM83.55 116.76l.12.05.11-.21-.13-.08-.1.24zM85.66 118.15V118h-.18a.33.33 0 0 0 .06.19.22.22 0 0 0 .12-.04zM87.14 118.15l-.2.32a.23.23 0 0 0 .2-.24zM79.52 113.33l-.08-.16a.51.51 0 0 0-.13.13v.24zM85.74 119.25l.05.06v.1s.08 0 .08-.1v-.17h-.18zM86.1 117a.28.28 0 0 0-.13 0h-.13v.19l.25.08zM88.26 110.14h-.12s-.06 0-.06.08v.08l.23.11a.24.24 0 0 0 .08-.16s-.04-.09-.13-.11zM78.22 116.36h.15a.37.37 0 0 1 0-.16.16.16 0 0 1-.1 0h-.08a.92.92 0 0 0 .03.16zM78.91 113.33a.18.18 0 0 0 .07-.08v-.06c0-.06 0 0-.07 0s0 0 0 .08l-.08.11a1.6 1.6 0 0 0-.23.16.14.14 0 0 0 .1.06.46.46 0 0 0 .23-.14s-.01-.13-.02-.13zM78.57 116.65a.22.22 0 0 0-.15.08h.31a.3.3 0 0 0-.16-.08zM78.93 113s0 .1.13.13a.33.33 0 0 0 0-.16.31.31 0 0 0-.08-.21.44.44 0 0 0-.05.24zM78.42 116.89zM78.45 116.9a1.91 1.91 0 0 1 .12.47.12.12 0 0 0 .11-.13.26.26 0 0 0 0-.11c-.07-.13-.14-.22-.23-.23zM79 112a.24.24 0 0 0-.2-.11.2.2 0 0 0 0 .08.27.27 0 0 0 .13.22h.1a.17.17 0 0 0 .13 0A.5.5 0 0 1 79 112zM79.49 116s-.07 0-.07.1v.16c0 .06 0 .08.1.08a.4.4 0 0 0 .21-.08l-.08-.08s0-.08-.08-.24-.06.06-.08.06z"/><path class="cls-1" d="M79.8 116.06a.76.76 0 0 0-.1-.13.44.44 0 0 0-.16.08.7.7 0 0 1 .08.16.42.42 0 0 1 .18-.11zM79.49 117v-.06.14a.17.17 0 0 0 0-.08zM79.54 117.56l.08-.06s-.06 0-.11-.13a.47.47 0 0 0-.1.16.17.17 0 0 1 .13.03zM78.22 113.76a.48.48 0 0 0 .15-.11l-.11-.13zM78.78 112.9s.06-.05.07-.16h-.07s-.08 0-.08-.06a.19.19 0 0 0 0 .08v.19h.08zM78.6 109.58c.15 0 .23-.11.23-.22a.18.18 0 0 0-.1 0 .11.11 0 0 0-.08 0 .37.37 0 0 1-.15.06.11.11 0 0 1-.08 0c0 .12 0 .19.13.19zM78.68 112a.1.1 0 0 0 0-.08s0-.08-.08-.13a.8.8 0 0 0 .2-.14.14.14 0 0 0-.1 0s-.06 0-.1.1a.59.59 0 0 0-.05.19.11.11 0 0 0 .13.06zM78.45 111.53l.1.14.13-.11-.11-.13-.07.08zM78.78 110.35v-.11c-.07-.07-.11-.11-.13-.11h-.16a.15.15 0 0 0 0 .08.4.4 0 0 0 .29.14zM78.12 112.74h.07c.07 0 .12 0 .16-.14a.21.21 0 0 1 .17-.1.13.13 0 0 1 .08 0c0-.09-.06-.13-.13-.13a.33.33 0 0 0 0-.14s-.06 0-.13.14a.5.5 0 0 0-.22.37zM78.29 110.09h-.05l.11.06a.11.11 0 0 0 .07 0s.06 0 .08-.08a.12.12 0 0 1-.07 0s-.14.04-.14.02zM78.5 114a.16.16 0 0 0 .07.14l.11-.11v-.11c0-.11-.07-.1-.1-.1a.14.14 0 0 0-.11 0 .13.13 0 0 0 .03.18zM79.67 112v.11a.19.19 0 0 0-.05.11.54.54 0 0 1-.15.16v.06c0 .09 0 .13.07.13a.27.27 0 0 1 0 .11h.16a.5.5 0 0 0 0-.19.36.36 0 0 1 0-.11.43.43 0 0 0 0-.11.52.52 0 0 0 0-.11.07.07 0 0 0 0-.1v-.11zM78.19 114.11l.13-.09-.08-.13-.12.06.07.16zM78.91 115.18a.19.19 0 0 1-.13 0 .82.82 0 0 0-.1.35h.15zM69.6 69v-.1c-.1 0-.15.06-.15.13a.33.33 0 0 0 0 .16v.08a.32.32 0 0 0 .15-.27zM79.19 113.44l-.21.08.1.13.18-.08-.07-.13zM68.76 69.19a.32.32 0 0 0 .15.27.31.31 0 0 0 .2.11c.07 0 .12-.06.16-.17s0-.1-.15-.13a.24.24 0 0 0-.15-.06c-.06 0-.1 0-.13.11h-.1v-.1a.19.19 0 0 0 .02-.03zM79 113.65c0 .09.08.16.23.19a.832.832 0 0 0-.23-.19zM79.14 114.8a1.49 1.49 0 0 1 0-.21h-.2a.61.61 0 0 1 0 .16c.13.01.2.03.2.05zM31.84 31.87v-.61a3.23 3.23 0 0 0 0 .35c-.01.13 0 .21 0 .26zM33.15 34.9c-.14 0-.21.07-.21.19s.05.13.1.13h.27c.02-.22-.05-.32-.16-.32zM35.45 32.62zM36 48a.32.32 0 0 0-.13 0 .23.23 0 0 0-.2.1.73.73 0 0 0-.1.35q.15 0 .18.24c.1 0 .16-.09.18-.24a.53.53 0 0 0 0-.21v-.11zM35.5 33.7a.27.27 0 0 1 0 .13.29.29 0 0 1 0 .09h.06a1 1 0 0 0-.06-.22zM30.38 3.6zM36.64 48.27v-.18a1.22 1.22 0 0 1 0-.32h-.13c-.2 0-.31.08-.31.24a.39.39 0 0 0 0 .13.76.76 0 0 0 .05.19v.36a.23.23 0 0 1 .13 0s.06-.08.13-.08zM29.28 23.65zM36.46 32.38h.4a1.7 1.7 0 0 1-.09-.54v-.51a3.14 3.14 0 0 0 0-.51 2 2 0 0 0-1.15.62c0 .26-.06.53-.1.84a4.09 4.09 0 0 0 .94.1zM49.05 29.19l.05.06v.08a.44.44 0 0 1 .18.24.45.45 0 0 1 0 .16 1.39 1.39 0 0 1 0 .32 1.36 1.36 0 0 0 .46-.13.39.39 0 0 0 .12-.24v-.41a1.32 1.32 0 0 1 .11-.53l-.54.08a4.48 4.48 0 0 1-.53-.13v.1a.73.73 0 0 0 0 .3.3.3 0 0 0 .15.1zM27.1 42.62c-.13 0-.2-.11-.2-.21-.29 0-.45.25-.49.72v.64a5.18 5.18 0 0 1 0 .62c.25 0 .4-.18.43-.54a3 3 0 0 0 0-.51v-.24a1.84 1.84 0 0 1 0-.26.49.49 0 0 1 .36.26.35.35 0 0 1 0 .16 1 1 0 0 1 0 .22 1.65 1.65 0 0 0-.05.21l-.05.11v.13a1.26 1.26 0 0 0-.07.41v.08h.1a.3.3 0 0 0 .28-.14.82.82 0 0 0 .1-.48v-.62a2.07 2.07 0 0 1 .05-.53 1.82 1.82 0 0 1-.46-.03zM23.23 28.5a.3.3 0 0 0 .13.29.64.64 0 0 0 .45.11h.59a1.94 1.94 0 0 1 .51 0 .49.49 0 0 1-.1-.35 1.3 1.3 0 0 1 .05-.37 1.79 1.79 0 0 1 .33-.83.15.15 0 0 0-.15-.11.1.1 0 0 0-.08 0h-.48a1.26 1.26 0 0 1-.33-.16 2.89 2.89 0 0 1 0 .53.68.68 0 0 1 0 .19v.13a1 1 0 0 0 0 .25 1.53 1.53 0 0 0 .08.45.28.28 0 0 1-.18.06.24.24 0 0 1-.15-.06l-.13-.13-.08-.14-.15-.18s-.08.06-.13.18zM24.1 44a.17.17 0 0 0 0-.05.19.19 0 0 1 .1 0l.16.16h.05l.05.08a1 1 0 0 1 .15.14 1.23 1.23 0 0 1-.2-.81 4.44 4.44 0 0 1 .07-.75V42.32v-.56a.78.78 0 0 0 0-.35 2 2 0 0 0-.48.56 3.77 3.77 0 0 0-.2.64v.19l-.05.19a1.7 1.7 0 0 1-.08.37 3.82 3.82 0 0 1-.35.91 2.22 2.22 0 0 0 .58-.18zM25.57 33.4q-.43 0-.54.81v.96h.51a1.22 1.22 0 0 0 .79-.19 1.78 1.78 0 0 0 .08-.45.5.5 0 0 0 0-.19.91.91 0 0 0-.25-.35 1.13 1.13 0 0 0-.18-.14l-.08-.05-.1-.08a.76.76 0 0 1-.23-.32z"/><path class="cls-1" d="M23.92 27.13v-.05h-.16c-.34 0-.51.21-.51.62h.13c.36.02.54-.17.54-.57zM26.13 31.07v.16c-.05.25-.14.38-.28.4 0 .29.22.45.61.49H27a3.88 3.88 0 0 1 .54 0l.05-1.1a.76.76 0 0 0-.46-.13h-.41a1.19 1.19 0 0 1-.41-.16.27.27 0 0 0-.13.19zM24.58 34.5a.74.74 0 0 0 0-.19.81.81 0 0 0-.15-.46h-.18a.17.17 0 0 0-.1 0h-.13c-.05 0-.08-.07-.08-.16q-.33 0-.48.51c0 .05 0 .11-.05.18v.22a1.82 1.82 0 0 1-.13.37l1.5.08a1 1 0 0 1-.1-.4.45.45 0 0 1 0-.16zM27.1 27.21l-.05 1.13a.31.31 0 0 1-.2-.19.5.5 0 0 1-.05-.15v-.14a.39.39 0 0 0-.39-.29h-.12L26.18 29a1.47 1.47 0 0 1 .44-.08.85.85 0 0 1 .23 0h.07L27 29h.17a2.1 2.1 0 0 0 .51.05 2.72 2.72 0 0 1-.12-.8 2.43 2.43 0 0 1 .2-1zM23 31.42l-.05.16a1.69 1.69 0 0 0-.1.35.3.3 0 0 0 .15.07.23.23 0 0 0 .13 0 .38.38 0 0 0 .13-.08v-.05h.08a.28.28 0 0 1 .15-.08q.09 0 .12.27c.15-.05.24-.13.26-.24a.67.67 0 0 0-.08-.27v-.08l-.05-.11a.89.89 0 0 1-.07-.19.41.41 0 0 1 0-.16.6.6 0 0 1 .05-.24.76.76 0 0 1 .21-.05.14.14 0 0 1 .13.05.75.75 0 0 1 .09.24v.14l.05.1a.28.28 0 0 0 .13 0 .64.64 0 0 0 .2 0v-.88l-2.12-.11a.29.29 0 0 0 .23.22H23.05a1.24 1.24 0 0 1 0 .27 2 2 0 0 1-.1.59zM20.65 44.34c.31-.15.47-.54.49-1.18V43a4.37 4.37 0 0 0-.14-1.32c-.24.13-.37.52-.38 1.18v.24a5.62 5.62 0 0 0 0 .57 2.73 2.73 0 0 0 0 .37v.16a.59.59 0 0 0 .03.14zM22.44 28.77a.16.16 0 0 0 .15.08.49.49 0 0 0 .2-.06v-.56c0-.2.12-.31.26-.32 0-.25-.19-.4-.51-.46h-.74a.8.8 0 0 1-.23 0 3 3 0 0 1-.07.62V28.49a.24.24 0 0 0 .15.25 1.51 1.51 0 0 0 .59.08v-.08a.53.53 0 0 0-.08-.27v-.08l-.16-.11a1.41 1.41 0 0 1 0-.18.39.39 0 0 1 .2-.06.16.16 0 0 1 .15.08.6.6 0 0 1 .06.32v.19a.17.17 0 0 0 .03.14zM26 43.72a1.39 1.39 0 0 0 0-.3v-.29-.54l-1-.05a.78.78 0 0 0 .13.46.71.71 0 0 0 .15.16l.08.08.07.08a.76.76 0 0 1 .23.56 1.32 1.32 0 0 1-.1.46c.23 0 .44-.21.44-.62zM40.61 32.81a.59.59 0 0 0 .41-.13 1 1 0 0 0 .33-.56.77.77 0 0 0 .39.4h.12l.11.08a.46.46 0 0 1 .2.19 1.69 1.69 0 0 0 .51-.35.89.89 0 0 0 .18-.59v-.16a.27.27 0 0 0-.12-.15c.1 0 .15-.07.15-.16v-.05c0-.06 0-.09-.13-.09a.19.19 0 0 0-.13-.05v.08a.2.2 0 0 0-.13.17.15.15 0 0 0 .08.13.12.12 0 0 0-.09 0h-.83a1.63 1.63 0 0 1-.31 0 2 2 0 0 1-1-.27.79.79 0 0 0-.23.64v.11a.89.89 0 0 0 .18.59 1.63 1.63 0 0 0 .31.17zm0-.86c0-.07 0-.11.06-.13.05 0 .13.1.23.3q-.08.18-.15.18h-.05a.38.38 0 0 1-.11-.24zM42.94 47.18a.75.75 0 0 0 0 .24.23.23 0 0 0 .11 0c0-.11-.06-.17-.13-.19zM41.79 46.1V46c0-.07 0-.1-.11-.1a.12.12 0 0 0-.07 0 .21.21 0 0 0 .07-.13s0-.07-.07-.11 0-.08 0-.08a.12.12 0 0 0-.1.06h-.18l.1.06a.21.21 0 0 0-.07.16v.08a.1.1 0 0 0 .08 0 .1.1 0 0 0 0 .08c0 .08.06.11.11.11h.1c.08.12.14.06.14-.03zM43 42.27a.7.7 0 0 0-.46.51 1.45 1.45 0 0 0 0 .43 2.69 2.69 0 0 0 0 .38V44.04a4 4 0 0 1 0 .43v.13a.9.9 0 0 1-.13.54.63.63 0 0 0 .41-.4A2.27 2.27 0 0 0 43 44V43.12a4 4 0 0 1 0-.85zM38.27 29.33h.3a2.18 2.18 0 0 1 .92.35.49.49 0 0 0 .05-.24.65.65 0 0 0 0-.19 1 1 0 0 0-.08-.19v-.19a.86.86 0 0 1-.08-.32c0-.09.1-.16.25-.21 0-.33-.24-.49-.63-.49h-.18l-.05.89a.57.57 0 0 1-.23-.27s0-.09-.08-.16l-.08-.16a.56.56 0 0 0-.53-.35h-.1a.94.94 0 0 1 .33.67v.11a3 3 0 0 1-.38.77 2.24 2.24 0 0 0 .48.06zM42.91 35.47a1.3 1.3 0 0 0-.18-.81.23.23 0 0 0-.15 0h-.1c-.15 0-.25.06-.28.15s0 0 0 .06a.44.44 0 0 1-.16.08c-.07 0-.11-.11-.13-.27a.37.37 0 0 0-.23.21V35.24a2.83 2.83 0 0 1-.1.35.4.4 0 0 1-.26.19.38.38 0 0 1-.23-.27.79.79 0 0 1 .1-.32v-.14a.61.61 0 0 0 0-.16.24.24 0 0 0-.16-.22 1.91 1.91 0 0 1-.41.11h-.48a.66.66 0 0 0-.38.11v1.1l3.18.16a5.29 5.29 0 0 0-.03-.68zM41.74 43.1c-.29 0-.45.26-.49.73v1.26a1.15 1.15 0 0 1 .28-.44.3.3 0 0 1 .2-.1s.07.09.07.21a1.72 1.72 0 0 1-.18.57.88.88 0 0 0 .39-.4 1 1 0 0 0 0-.33v-.75a2.61 2.61 0 0 1 .1-.75 1.3 1.3 0 0 1-.28.16c-.03 0-.08-.05-.09-.16zM37.12 31.47v1.13a1.12 1.12 0 0 0 .87-.46.77.77 0 0 0 .18-.45.62.62 0 0 0-.13-.38.25.25 0 0 0-.13 0h-.13a.22.22 0 0 1-.07.06h-.1a.58.58 0 0 1-.31.11.25.25 0 0 1-.18-.01zM36.86 29.46c.28 0 .42-.17.42-.53v-.19q0-.14-.06-.3v-.29a2.37 2.37 0 0 1-.1-.46 2.15 2.15 0 0 0-.21.35 4.85 4.85 0 0 0-.2.51 1.72 1.72 0 0 0-.07.46.52.52 0 0 0 .2.45zM41.53 47a.2.2 0 0 0 .18.16.17.17 0 0 0 .18-.1V47a.67.67 0 0 0-.15-.34c-.12.15-.21.28-.21.34zM50.81 30.08a.17.17 0 0 0 .1 0L51 30a.94.94 0 0 1 .36-.08h.08a1.82 1.82 0 0 0 0-.38.66.66 0 0 0-.2-.53 1.2 1.2 0 0 0-.84-.24 1.31 1.31 0 0 0-.18.59v.05a2 2 0 0 0 .33.7.8.8 0 0 0 .26-.03zM43.72 34.39a.32.32 0 0 0-.07-.18.27.27 0 0 0-.08.19.27.27 0 0 0 .08.16.16.16 0 0 0 .07-.17zM43 35.32a.76.76 0 0 0 .12.31.42.42 0 0 0 .18-.08.45.45 0 0 0-.3-.23zM43 35.3zM39.09 34.61a.76.76 0 0 1-.16-.11l-.1-.08-.08-.05a.72.72 0 0 1-.25-.37c-.27 0-.43.21-.46.61v.59a3.31 3.31 0 0 1 0 .54h.52a1.12 1.12 0 0 0 .76-.19 1.42 1.42 0 0 0 .07-.43.75.75 0 0 0 0-.21.64.64 0 0 0-.3-.3zm-.47.77s-.05 0-.05-.08a.83.83 0 0 1 0-.13.34.34 0 0 1 .11-.24q.11 0 .18.21c-.08.16-.17.24-.24.24zM36 48.87h.05a.22.22 0 0 0 .06-.1.14.14 0 0 0-.11.1z"/><path class="cls-1" d="M43 35.57v.05a.28.28 0 0 0 .21.27.23.23 0 0 0 0-.11c.01-.11-.06-.17-.21-.21zM43.34 34.71h-.05c-.12 0-.18.06-.18.17s0 .08.13.08h.13c.08 0 .13 0 .15-.16q0-.09-.18-.09zM52.7 30a6.91 6.91 0 0 0 1.6.22h.49a3.89 3.89 0 0 1 .51 0l1.22.13a3.91 3.91 0 0 0-.15-.45v-.22a1.08 1.08 0 0 1-.07-.18.5.5 0 0 1 0-.16.62.62 0 0 1 .38-.54c0-.2-.29-.3-.71-.3H55.28a1 1 0 0 1-.28 0 .42.42 0 0 0-.2.38v.4a1.5 1.5 0 0 1 0 .22.51.51 0 0 1 0 .13c0 .11-.15.17-.33.19s-.18-.15-.18-.35v-.3a.78.78 0 0 0 0-.16.36.36 0 0 0 0-.1L53 28.87a.25.25 0 0 0-.15.22.61.61 0 0 0 0 .16V29.42a.79.79 0 0 1 .07.29.32.32 0 0 1-.22.29zM51.81 29.36V29.65a2.87 2.87 0 0 1 .15.51h.18c.19 0 .28-.14.28-.41v-.69a.7.7 0 0 1 0-.24.74.74 0 0 0-.16-.11h-.2c-.17-.07-.26-.16-.26-.27a.34.34 0 0 0-.33.24v.08a1.43 1.43 0 0 0 .08.38c.16.02.2.11.26.22zM42.78 34a.5.5 0 0 0 .16.29.13.13 0 0 0 0 .08h.08a.55.55 0 0 0 .33.14h.05a.2.2 0 0 0 .13-.17.62.62 0 0 0-.51-.51.45.45 0 0 0-.16 0c-.05.1-.08.17-.08.17zM42 32.81v-.08a.23.23 0 0 0-.16-.08h-.07a.42.42 0 0 0 .23.16zM43 26.86a.39.39 0 0 0-.1-.19v-.07a.28.28 0 0 0-.06.18.38.38 0 0 0 .06.19c.1-.04.1-.07.1-.11zM41.79 29.52v-.08l-.08-.08a.9.9 0 0 1-.18-.35.53.53 0 0 1 .2-.06.15.15 0 0 1 .13.06s.06.11.08.24v.13a.2.2 0 0 0 .08.11.25.25 0 0 0 .13 0h.2v-.22a1.23 1.23 0 0 0-.33-.88 2.08 2.08 0 0 0-.41-.27l-.26-.12-.25-.11-.1 1.76.87.05a.4.4 0 0 0-.08-.18zM39.31 31.47h-.17l-.21.05h-.53l-.06 1.1a1.92 1.92 0 0 1 .47-.08.44.44 0 0 1 .15 0h.18a1.35 1.35 0 0 0 .43.06v-.27a2.13 2.13 0 0 0 0-.3c0-.2.09-.29.23-.29a.89.89 0 0 0-.26-.35.56.56 0 0 0-.2 0zM42.3 28.9zM42.5 28.34v.08c0 .07.08.1.23.1h.08c.12 0 .17-.06.17-.18s0-.1-.17-.13-.06-.07-.16-.11c0-.09-.09-.13-.16-.13a.19.19 0 0 0-.15.08.1.1 0 0 0 .05.08.11.11 0 0 0-.08.11v.05c.06.01.11.05.19.05zM43.47 30.45a.25.25 0 0 0-.08-.18v-.06a1.77 1.77 0 0 0-.1.38h.15a.44.44 0 0 0 .03-.14zM42.86 30.67c.13 0 .2-.07.2-.16v-.06c0-.05 0-.08-.12-.08h-.13c-.09 0-.14.06-.16.16 0 .1.07.14.21.14zM42.09 47.82c.06 0 .08-.06.08-.19a.14.14 0 0 0-.17-.13c-.05 0-.08 0-.08.1v.06a.33.33 0 0 0 .17.16zM42 48.41a.16.16 0 0 0 .15-.11s-.07.02-.15.11zM42.42 47.12zM41.43 50.5a.83.83 0 0 1 .2.11.51.51 0 0 0 .08-.14l.1.16c.11 0 .18-.1.23-.24a.63.63 0 0 0-.28.08.3.3 0 0 0 .15-.24.54.54 0 0 0 0-.19.24.24 0 0 0 .1-.1 2.35 2.35 0 0 0-.58-.06v.22h.1a1.66 1.66 0 0 0 0 .24.35.35 0 0 0-.1.16zM41.33 50a.41.41 0 0 0 0-.16.22.22 0 0 0 0-.11.25.25 0 0 0-.15-.24l.06.14h-.16a.35.35 0 0 0 .25.37zM40.23 47.2a.24.24 0 0 0 .28-.24v-.05q0-.24-.3-.24h-.13a.27.27 0 0 1 0-.08.29.29 0 0 0 .08-.19h-.08v-.08a.18.18 0 0 0-.17-.11.23.23 0 0 0-.11 0q-.18.1-.18.24v.05a.13.13 0 0 0 .13.11H39.98a.19.19 0 0 0-.1 0h-.07s-.07 0-.1.1v.06a.15.15 0 0 0 .07.13h.05q0 .24.36.24zM40.3 48V48.35s.04-.18 0-.35zM39.57 42.75a4 4 0 0 0-.13-.67 1.53 1.53 0 0 0-.44 1.18v.57l.06.4V45q.54-.06.54-1.29a6.28 6.28 0 0 0-.03-.96zM40.26 47.71V47.6zM40.56 49.53h.11A.88.88 0 0 0 41 49a2.09 2.09 0 0 0 .1-.59v-.11a.78.78 0 0 0-.2-.59.55.55 0 0 0-.36.35V48.51a.89.89 0 0 1 0 .15v.05a.16.16 0 0 0 0 .08v.11a.37.37 0 0 1-.27.24.18.18 0 0 0-.13-.05.22.22 0 0 0-.18.08.33.33 0 0 0-.1.24.44.44 0 0 0 .22.32v.05c0 .07.06.14.16.19v-.08a.43.43 0 0 0 0-.11.33.33 0 0 0 .25-.11.24.24 0 0 0 .08-.16.26.26 0 0 0 0-.11z"/><path class="cls-1" d="M41.2 50h-.05a.3.3 0 0 0-.1-.24h-.08a.19.19 0 0 0-.15.08l-.13-.08a.19.19 0 0 0 0 .13.54.54 0 0 0 0 .19v.1l.05.06a.07.07 0 0 0-.05.08.16.16 0 0 0 0 .08c0 .07.05.12.15.16h.06a.21.21 0 0 0 .2-.11h.08c.06 0 .1-.06.1-.19v-.1c.02-.07-.01-.16-.08-.16zM38.5 42.3a.27.27 0 0 0-.16.08 1.24 1.24 0 0 0-.22.62 2.33 2.33 0 0 0-.06.53 1.9 1.9 0 0 0 0 .35 1.1 1.1 0 0 0 .18.62.4.4 0 0 0 .26-.35 1.87 1.87 0 0 0 0-.27v-1.02c0-.2.11-.31.25-.35-.07-.14-.17-.21-.25-.21zM40.23 48.86a.18.18 0 0 0-.1.17.23.23 0 0 0 .11 0c.08 0 .12 0 .12-.11a.1.1 0 0 0-.13-.06zM40.33 50.79c0 .2.07.3.2.3a.23.23 0 0 0 0-.09c.01-.13-.06-.19-.2-.21zM36.25 48.76a.22.22 0 0 0-.15.08c0 .07 0 .11.1.11.08 0 .12 0 .12-.11s-.02-.08-.07-.08zM52.85 32.71v-.11l-.08-.19a1.68 1.68 0 0 1 0-.29 1.4 1.4 0 0 1 .13-.57l-1.48-.08-.07 1.8.63-.38h.18l.07.08h.08s0 .07.05.08a2.56 2.56 0 0 0 .64.3 1.71 1.71 0 0 0-.1-.54zM43.22 46.24h-.06zM45.51 46v-.13a.25.25 0 0 0-.13 0 .29.29 0 0 0-.23.13.36.36 0 0 0 .2.06zM28.76 34a2.16 2.16 0 0 1-.76.16h-.66a5 5 0 0 0-.72.06v.4a1.08 1.08 0 0 0 .1.51.58.58 0 0 0 .54.26.71.71 0 0 0 .2 0v-.67a.75.75 0 0 1 .31 0l.1.05h.05a.42.42 0 0 0 .13 0 1.25 1.25 0 0 0 .23-.17.52.52 0 0 1 0 .14.25.25 0 0 1-.13.24.62.62 0 0 1-.33.05.3.3 0 0 0 .33.3.41.41 0 0 0 .16 0 1.73 1.73 0 0 0 .31-.07v-.17c.08-.38.11-.73.14-1.09zM35.57 35.14s.06 0 .1.06a1.72 1.72 0 0 1 .23.48 1.47 1.47 0 0 0 .66-.75c0-.07.08-.15.13-.24l.1-.27a2.72 2.72 0 0 1 .23-.48 1.55 1.55 0 0 1-.59.11h-.12L36 34H35.59a.86.86 0 0 1-.07.34h-.18.06a.07.07 0 0 0 .07.06 3.25 3.25 0 0 0-.25.47v.05c0 .09.06.16.2.21a.23.23 0 0 1 .08.09zM29 31.07a1 1 0 0 0-.36-.16h-.15a2.13 2.13 0 0 0-.69.13 1.72 1.72 0 0 1 .18.57l.05.16v.16a.54.54 0 0 0 .12.24h.23a.88.88 0 0 0 .53-.16v-.54zM39.44 39.06c0-.06 0-.09-.1-.11a2.11 2.11 0 0 0-.61-.05h-.95l-1-.06c-.61-.07-1.2-.12-1.78-.17a.23.23 0 0 0 .14.17.31.31 0 0 1 .1.15l4.07.2c.1-.05.13-.1.13-.13zM35.27 34.07a.31.31 0 0 0 .23-.13h-.06a.45.45 0 0 0-.24.06c.01 0 .03.07.07.07zM36.36 28.77v-.14a1.12 1.12 0 0 0 0-.24v-.24a2.28 2.28 0 0 1-.05-.4v-.11q-.43 0-.48.75V28.63a1.11 1.11 0 0 1 0 .23.54.54 0 0 1-.09.31.69.69 0 0 0 .14.26.69.69 0 0 0 .48-.66zM38.47 47.47a.71.71 0 0 0-.35-.13h-.35a1.56 1.56 0 0 0-.17.41 2.39 2.39 0 0 0-.13.61 1.12 1.12 0 0 0 0 .24c0 .36.13.54.38.54h.08l.08-1.56H38a.3.3 0 0 1 .33.25c.17-.06.26-.12.26-.19.01-.06-.03-.12-.12-.17zM29.26 28.55a.28.28 0 0 0 0 .09s.01-.07 0-.09zM35.29 44a3 3 0 0 0 .05-.59v-.59a.73.73 0 0 0-.32.24 10.33 10.33 0 0 1-.32 1.22c.11 0 .18.08.21.21a.68.68 0 0 0 .38-.49zM36.26 43.88a.27.27 0 0 1-.06-.16 1.17 1.17 0 0 1 0-.43c-.08 0-.15.1-.2.3a1.57 1.57 0 0 0-.1.58v.14a1 1 0 0 0 .07.4.3.3 0 0 0 .26.16h.13a1.26 1.26 0 0 0 0-.33 1.37 1.37 0 0 0-.1-.48zM28 28.82h-.13q0 .24.39.24h.35a1.19 1.19 0 0 1 .31 0L29 28a.31.31 0 0 1-.36-.27h-.13c-.37 0-.56.25-.56.75v.14l.16-.14.05-.08v-.08a.39.39 0 0 1 .3-.13h.11v.05c-.01.38-.19.58-.57.58zM36.26 42a.09.09 0 0 0-.06 0c-.06 0-.12 0-.15.14a.54.54 0 0 0 0 .21v.08a.47.47 0 0 0 .13.3h.13a.32.32 0 0 0 .17-.05v-.46h-.05q-.15-.06-.17-.22zM37.61 44.71a.84.84 0 0 0 .07-.4v-1.02a.94.94 0 0 1 .05-.37.62.62 0 0 0-.26-.06.56.56 0 0 0-.3.08l-.1.08-.11.06h-.3a1.24 1.24 0 0 1 .41.88v.48a1.51 1.51 0 0 0 .13.46h.08a.35.35 0 0 0 .33-.19zM28.33 42.7v-.83h-.08l-.1.05A.35.35 0 0 1 28 42a2 2 0 0 1 .1.65c0 .08 0 .19-.05.29v.32a2.32 2.32 0 0 0 0 .51 1.54 1.54 0 0 0 .15.7 1.35 1.35 0 0 0 .28-.65 2.26 2.26 0 0 0 0-.26c-.12-.28-.13-.56-.15-.86zM37.09 47.34H37v.7a.69.69 0 0 0-.13.21H37v.45a.38.38 0 0 0-.27-.13c0 .19-.07.28-.2.28a.57.57 0 0 0 0-.12.58.58 0 0 0 0 .16h.2a.16.16 0 0 0 .08 0V49a.1.1 0 0 0 0 .09h.11a.15.15 0 0 0 0-.08.7.7 0 0 0 0-.13.14.14 0 0 0 .12-.08v.31h.14zM3.98 46.7v.19l.19.17h.22l.22-.17v-.19l-.22-.18h-.22l-.19.18zM3.58 45.46v.35h.19l.4-.35v-.36h-.19l-.4.36zM3.17 49.01v.19l.41.35h.19l-.19-.54h-.41zM6.04 46.7v.19l.41-.37v-.17l-.41.35zM6.85 45.1v.54h.19l.22-.18-.41-.36zM35.13 59.41l-.1-.17.22-.35v-.37h-.22l-.1.89.2.35v-.35zM2.33 46.35h.62l.22-.19V46l-.22-.19-.62.54zM5.42 44.02h-.41l.19.73h.41l-.19-.73zM37.59 45.33h.21v-.16l-.21-.36v.52zM34.81 60.84h-.28l-.12.17v.19l.12.18.28-.54zM71.62 72.28h.15v1.19h-.15zM70.39 72.8h.17v.67h-.17zM85.1 71.61h.14v.93h-.14zM84.19 73.08h.29v-.13l-.44-.15v.15l.15.13zM36.73 58.59l-.15-.39h.15l-.15-.39h-.32l.17.13-.17.65v.28h.17l.3-.28zM69.66 72.95v-.15l-.15-.52h-.14v.26l.14.41h.15zM77.6 73.89h.15v.52h-.15zM79.99 73.21h.29l.47-.13v-.13h-.15l-.61.13v.13zM83.72 72.12v.08l.09.1h.09l.09-.1v-.08l-.09-.07h-.09l-.09.07zM79.64 80.76v-2.85h-.5v.34l-.06.07h.06v2.44h.5zM71.85 61.85h-.5v4.59h.5v-1.97l-.24-.23.24-.21v-2.18zM71.12 69.94h.49v1.3h-.49zM79.87 72.88h-.47v2.76h-.19v.13l.14.12.05-.05v1.42h.47v-4.38zM77.6 72.95h.15v.78h-.15zM62.19 53.12h-.29v.38l.29-.25v-.13zM49.18 89.26v-.15h-.2l-.09.23v.08h.09l.2-.16zM47.99 89.34l.17.18h.09l.09-.1-.18-.31h-.17v.23zM50.38 86h.73v-.65h-.24l-.49.41V86zM49.09 88.2H49l-.64.65.2.18h.09l.09-.34.08.08c.12 0 .22-.16.29-.49zM49.88 87.09l.5-.45v-.44h-.76v.89h.26zM62.34 55.24v.13h.14l.33-.26v-.13h-.18l-.29.26zM65.46 73.6v-.52l-.15.13h-.14l.14.39h.15zM65.32 72.28h.14v.67h-.14zM45.13 90.25v.08l.09.08.2-.16v-.08h-.2l-.09.08zM63.1 64.42h.29v-.52h-.44l.15.52zM44.66 89.26l.47-.57v-.07h-.18l-.08.07v-.15l.08-.08.09.08.18-.18v-.24h-.09l-.64.57.17.42-.17.15h.17zM47.05 87.71v.08l.09.1h.12l.08-.1v-.08l-.08-.08h-.12l-.09.08zM45.51 89.34h-.21l-.08.08-.09-.08-.26.26h-.12l-.09-.08v.08l.21.16h.08l.09-.08.26.15h.12v-.23l-.12-.08h.21v-.18zM44.02 88.46v.16l.09.07h.11l.09-.07-.2-.16h-.09zM42.38 88.2l.27-.23v-.08l-.27.23v.08zM42.94 87.71l.18.18h.08l.09-.1-.17-.16h-.09l-.09.08zM93.79 84.81v.25h.29c0-.25.2-.38.61-.38v-.29h-.44zM72.23 87.94h-.15l.3.28h.14l-.29-.28zM52.33 89.26l-.23.65.73.44.49-.44v-.21l-.49-.44h-.5zM62.48 47.13v-.26h.47v.26h.29l-.14-.68v-.52h-.29L62.19 47h.15l.14.13zM53.94 89.91l.11.08.18-.16-.18-.15h-.11v.23zM46.88 86.41l-.09-.08c-.31 0-.47.12-.47.24l.38.26.18-.18v-.08l-.09-.08h.09zM62.19 52.44h.29v.41h-.29zM63.24 56.05l-.29.26v.25h.29v-.51zM63.1 61.91h.29v.39h-.29zM69.46 89.3v-.77h-.13l-.14.38v.13l.14.13-.14.13h.27zM69.33 64.51l.27-.26v-.23l-.27.23v.26zM70.82 50.85v.13l.28.25h.4l-.27-.38h-.41zM70.96 54.01h.27v.38h-.27zM72.29 74h-.38c0 .21-.19.33-.56.37v-.07h-.46v.7h.46v-.23l.29.25c.09-.49.31-.74.65-.74zM71.64 73.76l-.27-.26v.38h.27v-.12zM71.37 77.17v.13l.13.12.41-.25h.27l.12.13v-.13l-.25-.26h-.27l-.41.26zM71.91 72.23h.38v.25h-.38zM72.7 72.74h-.13l-.14.12h-.13l-.12-.12v.12l-.13.13h.65v-.25zM78.26 75.77v.12l.41.13v-.13l.13-.12h-.54zM78.4 77.68l.13.38h.27v-.13l-.27-.25h-.13zM81 89.93l.27-.25-.41-.38h-1.1l-.27.25v.77a2.5 2.5 0 0 1 1.2.38l.27-.26v-.12l-.14-.13-.41.13-.27-.26v-.13zM82.86 89.93l.27.26.69-.26v-.12l-.41-.39h-.14l-.41.51zM85 76.91l.69-.25v-.38l-.27-.28a.5.5 0 0 1 0 .19v-.33h-.15v.48a.68.68 0 0 1-.23 0zM85.01 77.55h.14l.68-.13v-.38h-.14l-.13.13h-.14l-.41-.13v.51zM85.42 67.31l-.27.25v.13l.27-.25v-.13zM86.1 79.82l.28-.26v-.12l-.28.25v.13zM86.79 77.42l.13-.12-.27-.26h-.13v.26l.13.12h.14zM87.55 87.54l-.27.25v.64l.13.13-.13.12v.13l.13.13h-.27l.14.61.27.26h.13l.14-.39-.14-.1.14-.51a2.11 2.11 0 0 1-.27-1.27zM87.47 74.39h.52v.13h-.52zM93 50.85h-.14l-.14.13-1-.77a1 1 0 0 0-1.06.64l-.13-.1a1.08 1.08 0 0 0-1.13.65v.13l.14.13v.13l-.14.13h.14l-.14.38.14.78v2.56l-.14.52.14.52v.89l-.11.1v.25h.11v1.19l-.14.52.14.51v5.26h-.14l-.15-.13v.13l.29.26-.29.39h.29v.52H89c0 .17.19.25.58.25v.65a.72.72 0 0 1-.72.52.84.84 0 0 0 .72.52v1l-.14.64.14.39v.13l-.14.13.14.13h-.28l-.14-.13v.26c.29 0 .43.08.43.26v1.27l.58.13v-.13l.07-.06.33.31h.14l-.18-.41a.22.22 0 0 0 .19-.23v-.1l.13.12H91v-.39h-.41l-.11-.14v-.09c.16 0 .3-.12.42-.34v.46l.54.12v-.12l.13-.13c.26 0 .39-.09.39-.26v-.1l-.28-.38v-.13c.33 0 .56-.51.68-1.53l-.13-.12h.27l-.27-1.15v-1a.81.81 0 0 1 .82-.51v-.26l-.6-.15.14-.39v-.12l-.14-.13.27-.77-.27-.25v-.13l.14-.13V64l-.14-.12.55-.51-.41-.9.27-.25-.27-.76.13-.51-.27-.39v-.35h.27v-.39l-.54-.25v-.13l.13-.13c.28 0 .41-.08.41-.25V59l-.27-.76h.14q.21 0 .27-1.5c0-.34-.09-.52-.27-.52h-.14l.27-1.27-.13-.51v-.13a1.5 1.5 0 0 0 .68-1.31l-.14-.13.14-.13v-.38l-.27-1 .27-.25z"/><path class="cls-1" d="M90.44 50.6h.27v-.26a1.71 1.71 0 0 0 .68-1l-.27-.26-.41.26.14.61c-.28.05-.41.22-.41.65zM108.28 58.82v.13h.13l.28-.25v-.13h-.14l-.27.25zM108.82 58.32v.25l.14.13h.13l.14-.13-.27-.25h-.14zM120.11 57.73l.42.41V57.1l-.42.42v.21zM120.75 54.82v-.41h-.64l.42.41h.22zM86.25 54.2h.44v1.03h-.44zM68.03 95.14h.13l.15-.72v-.3h-.28v1.02zM61.09 122.67v.15l.29.3.46-.3-.46-.45-.29.3zM61.84 101.67h.29v-.43h-.15l-.14.43zM61.98 89.34l.29.29v-.87h-.29v.58zM50.35 116.15l-.15.16-.15 4c.05.39.2.59.44.59s.45-1 .58-3c.3 0 .46-.1.46-.29l-.46-1.46zM51.58 105.77h-.25v.22l.25.26h.13l-.13-.48zM53.23 87.61l-.11-.13h-.14l-.11.13.11.47.25-.24v-.23zM51.73 101.26h.23l-.12-.47h-.25l.14.47zM20.64 113.55h.15v.13h-.15zM16.26 117.02l.09-.13-.13-.04-.06.04h-.05l-.04-.04h-.05l-.14.04v.13h.1v-.13h.09v.13h.19zM15.36 117.44l-.05.06h-.04l-.04-.06-.15.12v.07l.04.06.11-.13.04.07.17-.07.31.13h.75v-.13l-.28-.06-.06.06-.05-.06h-.09l-.04.06v-.06l-.15.06h-.04l-.04-.06h-.07l-.04.06v-.06l-.05-.06-.04.06-.15-.06h-.04zM24.33 118.72l.06.07v-.07c0-.08-.13-.14-.39-.17h-.05l.18.19zM15.51 116.85l.04.17.09-.13-.09-.1h-.04v.06zM24.75 118.72l-.23-.06v.13l.23.04v-.11zM14.6 115.44h.15v.13h-.15zM13.65 117.56l.11-.12h-.25c-.09 0-.13 0-.13.1l.32.06zM15.55 115.5l-.04-.06v.13h.08v.06l.05-.06h.11l.04.06.04-.06h.05l.04.06.06-.06h.09l.04.06.05-.06h.1l.04.06.05-.06.24.06h.19v-.13h-.09v-.06l-.06.06h-.13l-.2-.06-.14.06v-.06l-.05.06h-.09l-.04-.06h-.06l-.04.06-.05-.06v-.06l-.28.12zM10.31 94.26H11v.44h-.69zM11.91 92.94l-.69-.21-.67.21c.12.45.57.67 1.36.67zM5.85 101.1h.67v-.44H5.4l.45.44zM9.64 97.15l-.68-.23h-.22v.67h.9v-.44zM14.8 115.44v.06l.32.07h.11l.04-.07.04.07h.05l.08-.13-.13-.06-.51.06zM7.21 100.66l.67.23.69-.68V100h-.24l-1.12.21v.45zM15.44 116.96v-.07l-.08-.1h-.05v.1l.05.07h.08zM22.49 118.43l-.62-.19c0 .07-.11.13-.33.19l-.32-.13-.06.07.1.23.76-.17s.06.11.19.17h.28zM12.06 116.85l.13-.06v-.13l-.13.13v.06zM11.86 116.85h.05l.15-.06-.11-.13-.09.19zM12.3 116.72v.07l.08.1.09-.1-.13-.07h-.04zM11.07 116.72v.13h.04l.09-.13v-.06h-.09l-.04.06zM10.2 117.27v.06l.09.11.11-.11-.15-.06h-.05zM12.81 116.79h-.06l-.04-.07-.13.07v.1l.04-.04h.04l.15.04v-.04l.05.04h.04l.09-.1-.13-.07-.05.07zM11.35 125.2l.26.15v-.05l-.17-.1h-.09zM10.2 116.66h-.04l-.15.06v.07h.04l.15-.07v-.06zM23.76 118.72v-.12h-.51v.11a.76.76 0 0 1 .43.23v-.13zM21.87 113.19h-.18l-.1.13h.15l.04-.07v.07l.09-.13zM23.1 118.6v-.11l-.48-.06h-.04l-.04.06v.06l.04.05.28-.05.24.05z"/><path class="cls-1" d="M21.93 118.55l.13.17h.04v-.12l-.12-.05h-.05zM20.88 112.94h.15v-.11h-.05l-.1.11zM17.34 122.32h.45v-.68l-.45.45v.23zM7.2 97.55v-.51l-.51-.48h-.24v.48l.5.51h.25zM68.31 111.14v.74l.13.19-.13.14v.45h.26l.13-.15-.26-1.37h-.13zM68.44 113.73l-.13 1.05h.26l.13-.9h-.13l-.13-.15zM78.37 95.6v.19h.39l.17-.19-.3-.29-.26.29zM69.63 99.13v.44h.13l.26-.92h-.13l-.13-.15-.13.63z"/></g></g></g></svg>