<svg xmlns="http://www.w3.org/2000/svg" viewBox="0 0 80.25 80.25"><defs><style>.cls-1{fill:#fff;}.cls-2{fill:#231f20;}</style></defs><g id="Layer_2" data-name="Layer 2"><g id="Layer_2-2" data-name="Layer 2"><circle class="cls-1" cx="40.12" cy="40.12" r="40.12"/><g id="RPS3No.tif"><path class="cls-2" d="M46.19,59.32H34l-.54,0a21.11,21.11,0,0,1-4.88-.55,10,10,0,0,1-7-5.87,15.24,15.24,0,0,1-1.15-5.81c0-1.28-.05-2.56-.05-3.84,0-3.93-.08-7.86.09-11.8A16,16,0,0,1,21,27.85a9.88,9.88,0,0,1,5-6.37A13.48,13.48,0,0,1,31.92,20c1.28-.06,2.57-.09,3.85-.09,4.14,0,8.29-.08,12.43.08a15.94,15.94,0,0,1,3.63.55A9.84,9.84,0,0,1,57,23.67,12.34,12.34,0,0,1,59.71,31c0,.78,0,1.56,0,2.34.09,4.71.14,9.42,0,14.12a17.42,17.42,0,0,1-.49,3.67A10.21,10.21,0,0,1,57,55.5a11.22,11.22,0,0,1-6.19,3.41,22.5,22.5,0,0,1-4.1.38C46.54,59.29,46.37,59.31,46.19,59.32ZM40.12,55.8h4.61a31.6,31.6,0,0,0,5.57-.42,7.3,7.3,0,0,0,3.86-2,6.53,6.53,0,0,0,1.74-3.61,32,32,0,0,0,.4-5.08c0-3.44,0-6.87,0-10.31,0-.94-.05-1.88-.12-2.81,0-.61-.16-1.21-.25-1.81a7.21,7.21,0,0,0-.7-2.3,6.44,6.44,0,0,0-3.34-3.16,10.05,10.05,0,0,0-2.59-.6,35.9,35.9,0,0,0-4.74-.29c-3.89,0-7.78-.11-11.67.08a18.06,18.06,0,0,0-2.55.26,8.18,8.18,0,0,0-2.11.59,7,7,0,0,0-2.63,2A7.7,7.7,0,0,0,24.22,30a38.78,38.78,0,0,0-.33,5c0,3.92-.11,7.84.08,11.76a13.82,13.82,0,0,0,.35,2.87,12.74,12.74,0,0,0,.51,1.76A6.31,6.31,0,0,0,28.47,55a8.34,8.34,0,0,0,2.25.51c1.21.11,2.41.27,3.62.3C36.26,55.84,38.19,55.8,40.12,55.8Z"/><path class="cls-2" d="M50.16,39.59A10.16,10.16,0,1,1,40,29.42,10.15,10.15,0,0,1,50.16,39.59ZM40,46.13a6.61,6.61,0,0,0,6.64-6.51,6.65,6.65,0,1,0-13.29,0A6.61,6.61,0,0,0,40,46.13Z"/><path class="cls-2" d="M48.22,29a2.5,2.5,0,0,1,2.42-2.38A2.41,2.41,0,1,1,48.22,29Z"/></g></g></g></svg>