<svg xmlns="http://www.w3.org/2000/svg" viewBox="0 0 80.25 80.25"><defs><style>.cls-1{fill:#fff;}.cls-2{fill:#231f20;}</style></defs><g id="Layer_2" data-name="Layer 2"><g id="Layer_2-2" data-name="Layer 2"><circle class="cls-1" cx="40.12" cy="40.12" r="40.12"/><g id="W20Ei4"><path class="cls-2" d="M43.08,58.39V57c0-4.19,0-8.38,0-12.57.06-3.22,2.22-5.52,5-5.51s4.62,2.17,4.71,5.45c.07,2.19,0,4.39,0,6.59v7.46h7.34V57c0-4.85,0-9.69,0-14.53a23.88,23.88,0,0,0-.25-3.27,8.59,8.59,0,0,0-9.08-7.6A9.66,9.66,0,0,0,43,35.77V31.63H35.82V58.39Z"/><path class="cls-2" d="M23.6,31.63V58.36h7.18V31.63Z"/><path class="cls-2" d="M27.18,28.43a4.17,4.17,0,0,0,4.26-4.21,4.24,4.24,0,1,0-8.48,0A4.19,4.19,0,0,0,27.18,28.43Z"/></g></g></g></svg>