<svg xmlns="http://www.w3.org/2000/svg" viewBox="0 0 80.25 80.25"><defs><style>.cls-1{fill:#fff;}</style></defs><g id="Layer_2" data-name="Layer 2"><g id="Layer_2-2" data-name="Layer 2"><path class="cls-1" d="M40.12,0A40.13,40.13,0,1,0,80.25,40.12,40.12,40.12,0,0,0,40.12,0Zm9.53,28.9h-.43c-1.69,0-3.38,0-5.07,0a2.38,2.38,0,0,0-2.45,2.41c-.05,1.8,0,3.61,0,5.42a.58.58,0,0,0,0,.13h7.91v8h-8V63.49h-8V44.87H28.4v-8h5.3V30.23a9.42,9.42,0,0,1,8-9.21,8.81,8.81,0,0,1,1.36-.11c2.09,0,4.17,0,6.26,0h.3Z"/></g></g></svg>