<svg xmlns="http://www.w3.org/2000/svg" viewBox="0 0 80.25 80.25"><defs><style>.cls-1{fill:#fff;}.cls-2{fill:#231f20;}</style></defs><g id="Layer_2" data-name="Layer 2"><g id="Layer_2-2" data-name="Layer 2"><circle class="cls-1" cx="40.12" cy="40.12" r="40.12"/><g id="maB7IG.tif"><g id="BfBXYP"><path class="cls-2" d="M31.59,50.94a18,18,0,0,1-12.44,3.62,3.15,3.15,0,0,0,.35.31c.22.14.44.29.67.41a24.66,24.66,0,0,0,16.18,2.77C49.47,56,57,44.37,56.86,33.22a1.72,1.72,0,0,1,.52-1.08c1.21-1.26,2.47-2.47,3.72-3.69l-.2-.24c-.48.16-1,.33-1.46.48s-.95.29-1.44.4-1,.18-1.45.27a9.74,9.74,0,0,0,3.31-4.47c-1.57.57-3.08,1.1-4.58,1.66a1.21,1.21,0,0,1-1.4-.35,8.63,8.63,0,0,0-9.68-1.26,8.74,8.74,0,0,0-4.72,8.57c0,.36.1.72.16,1.15A25,25,0,0,1,21.77,25.6a8.58,8.58,0,0,0-1,6.17A8.8,8.8,0,0,0,24.23,37l-.13.22-3.58-1c.27,4.33,2.53,7,6.5,8.61H23.65C24.48,48.08,27.47,50.39,31.59,50.94Z"/><path class="cls-2" d="M31.59,50.94c-4.12-.55-7.11-2.86-7.94-6.07H27c-4-1.58-6.23-4.28-6.5-8.61l3.58,1,.13-.22a8.8,8.8,0,0,1-3.43-5.26,8.58,8.58,0,0,1,1-6.17,25,25,0,0,0,17.87,9.06c-.06-.43-.13-.79-.16-1.15a8.74,8.74,0,0,1,4.72-8.57,8.63,8.63,0,0,1,9.68,1.26,1.21,1.21,0,0,0,1.4.35c1.5-.56,3-1.09,4.58-1.66a9.74,9.74,0,0,1-3.31,4.47c.48-.09,1-.16,1.45-.27s1-.25,1.44-.4,1-.32,1.46-.48l.2.24c-1.25,1.22-2.51,2.43-3.72,3.69a1.72,1.72,0,0,0-.52,1.08C57,44.37,49.47,56,36.35,58.05a24.66,24.66,0,0,1-16.18-2.77c-.23-.12-.45-.27-.67-.41a3.15,3.15,0,0,1-.35-.31A18,18,0,0,0,31.59,50.94Z"/></g></g></g></g></svg>