<svg xmlns="http://www.w3.org/2000/svg" width="669.72" height="96.99" viewBox="0 0 669.72 96.99"><defs><style>.cls-1{fill:#fff;}</style></defs><g id="Layer_2" data-name="Layer 2"><g id="Layer_2-2" data-name="Layer 2"><g id="LAVERNA_PARK_type" data-name="LAVERNA PARK type"><polygon class="cls-1" points="18.71 0 0 0 0 96.99 44.81 96.99 44.81 80.5 18.71 80.5 18.71 0"/><path class="cls-1" d="M67.83,0,45.11,97H64.37l3.46-17.18h19L90.28,97H109.4L86.82,0ZM71,63.32l6.24-31,6.09,31Z"/><polygon class="cls-1" points="132.26 63.88 119.8 0 100.81 0 122.57 96.99 141.97 96.99 163.72 0 144.74 0 132.26 63.88"/><polygon class="cls-1" points="166.13 96.99 213.79 96.99 213.79 80.5 184.84 80.5 184.84 55.42 209.78 55.42 209.78 38.94 184.84 38.94 184.84 16.49 213.79 16.49 213.79 0 166.13 0 166.13 96.99"/><path class="cls-1" d="M275,30.76C275,8.59,262.36,0,247.81,0h-25.5V97H241V61.38h6.24L258.48,97H278L263.75,56.81C270.53,52.24,275,43.92,275,30.76ZM245,44.75h-4V16.63h4c8,0,11.36,5,11.36,14.13S253.08,44.75,245,44.75Z"/><polygon class="cls-1" points="320.83 56.12 299.5 0 283.42 0 283.42 96.99 301.57 96.99 301.57 40.88 322.77 96.99 338.85 96.99 338.85 0 320.83 0 320.83 56.12"/><path class="cls-1" d="M365.87,0,343.14,97H362.4l3.47-17.18h19L388.31,97h19.13L384.85,0Zm3.18,63.32,6.24-31,6.1,31Z"/><path class="cls-1" d="M460.64,0H435.15V97h18.7V63.6h6.79c14.55,0,27.16-9.15,27.16-31.73S475.19,0,460.64,0Zm-2.77,47.11h-4V16.63h4c8,0,11.36,5.68,11.36,15.24S465.91,47.11,457.87,47.11Z"/><path class="cls-1" d="M505.54,0,482.82,97h19.26l3.46-17.18h19L528,97h19.12L524.52,0Zm3.19,63.32,6.23-31,6.1,31Z"/><path class="cls-1" d="M603.07,30.76C603.07,8.59,590.46,0,575.91,0h-25.5V97h18.71V61.38h6.24L586.58,97h19.54L591.85,56.81C598.64,52.24,603.07,43.92,603.07,30.76Zm-29.93,14h-4V16.63h4c8,0,11.36,5,11.36,14.13S581.18,44.75,573.14,44.75Z"/><path class="cls-1" d="M651.43,44.34c9.28-10,11.92-20.09,11.92-34.78V0H644.64V9.28c0,13.17-2.22,19.4-9.7,26.75l-4.71,4.57V0H611.52V97h18.71V63.88l6.93-6.52,13,39.63h19.54Z"/></g></g></g></svg>